<svg xmlns="http://www.w3.org/2000/svg" viewBox="0 0 886.24 774.07"><defs><style>.cls-1{fill:#5be0e5;}.cls-2{fill:#ff06d1;}.cls-3{fill:#ff88a6;}.cls-4{fill:none;stroke:#000;stroke-miterlimit:10;stroke-width:0.5px;}.cls-5{fill:#6280ff;}.cls-6{fill:#6680d1;}</style></defs><title>Ресурс 1</title><g id="&#x421;&#x43B;&#x43E;&#x439;_2" data-name="&#x421;&#x43B;&#x43E;&#x439; 2"><g id="&#x421;&#x43B;&#x43E;&#x439;_1-2" data-name="&#x421;&#x43B;&#x43E;&#x439; 1"><path class="cls-1" d="M747.42,144.86c8.61,0,16.85-7.57,16.46-16.46s-7.24-16.46-16.46-16.46c-8.61,0-16.86,7.57-16.46,16.46s7.23,16.46,16.46,16.46"></path><path class="cls-1" d="M101.25,630.84c8.61,0,16.86-7.57,16.46-16.46s-7.23-16.46-16.46-16.46c-8.61,0-16.85,7.57-16.46,16.46s7.24,16.46,16.46,16.46"></path><path class="cls-2" d="M712.2,11c7.06,0,7.07-11,0-11s-7.07,11,0,11"></path><path class="cls-2" d="M872.33,374.64c18.53,0,18.56-28.8,0-28.8s-18.57,28.8,0,28.8"></path><path class="cls-2" d="M11,531.9c7.06,0,7.07-11,0-11s-7.07,11,0,11"></path><path class="cls-2" d="M293,774.07c5.74,0,11.24-5.05,11-11a11.15,11.15,0,0,0-11-11c-5.74,0-11.24,5-11,11a11.16,11.16,0,0,0,11,11"></path><path class="cls-2" d="M11,380.13c5.74,0,11.24-5.05,11-11s-4.82-11-11-11c-5.74,0-11.24,5.05-11,11s4.82,11,11,11"></path><path class="cls-2" d="M230.92,58.07c5.74,0,11.24-5,11-11s-4.82-11-11-11c-5.74,0-11.24,5.05-11,11a11.16,11.16,0,0,0,11,11"></path><path class="cls-2" d="M780.58,608.61c12.07,0,23.63-10.61,23.07-23.07s-10.14-23.07-23.07-23.07c-12.07,0-23.63,10.61-23.07,23.07s10.14,23.07,23.07,23.07"></path><path class="cls-2" d="M599.21,762.62c13.5,0,13.53-21,0-21s-13.52,21,0,21"></path><path class="cls-1" d="M487.45,58.07c12.48,0,12.5-19.4,0-19.4s-12.5,19.4,0,19.4"></path><polygon class="cls-2" points="68.52 146.11 80.57 168.15 102.62 180.21 80.57 192.26 68.52 214.31 56.46 192.26 34.42 180.21 56.46 168.15 68.52 146.11"></polygon><polygon class="cls-2" points="780.58 459.84 784.48 466.97 791.61 470.87 784.48 474.77 780.58 481.9 776.68 474.77 769.55 470.87 776.68 466.97 780.58 459.84"></polygon><path d="M399.49,614.4l-.2-.21-.21-.21-.21-.21-.21-.21-.21-.21-.21-.21c-.07-.06-.14-.14-.21-.21l-.21-.21-.21-.2a2612306350165.62,2612306350165.62,0,0,1-.63-.63,2.08,2.08,0,0,0-.21-.21l-.2-.21-.21-.21c-.08-.07-.14-.14-.21-.21l-.21-.21-.21-.21-.21-.21-.21-.21-.21-.2a2612306350165.38,2612306350165.38,0,0,1-.63-.63l-.21-.21-.2-.21-.21-.21-.21-.21-.21-.21-.21-.21-.21-.21-.21-.2c-.07-.07-.14-.15-.21-.21a1306153174924.1,1306153174924.1,0,0,0-.42-.42,2.08,2.08,0,0,0-.21-.21l-.2-.21-.21-.21-.21-.21-.21-.21-.21-.21-.21-.21-.21-.21-.21-.21c-.07-.06-.13-.14-.21-.2a1306153174924.81,1306153174924.81,0,0,0-.42-.42,2.08,2.08,0,0,0-.21-.21l-.21-.21-.2-.21a11.32,11.32,0,0,0-18.64,4.79,26.19,26.19,0,0,0-1,4.63c-1.15,8.15-2.24,16.31-3.37,24.47-.15,1.1-.44,2.18-.7,3.46L341.38,637c1.18-4.66,2.36-9.33,3.5-14a22.86,22.86,0,0,0,.83-5.29,11.27,11.27,0,0,0-3.82-8.63l-.21-.21-.21-.21-.21-.21c-.07-.06-.13-.14-.2-.21a2.08,2.08,0,0,1-.21-.21c-.08-.06-.14-.14-.21-.2l-.21-.21-.21-.21-.21-.21-.21-.21a2.08,2.08,0,0,0-.21-.21l-.21-.21-.21-.21-.21-.21-.21-.21c-.07-.06-.13-.14-.2-.21a2.08,2.08,0,0,1-.21-.21c-.08-.06-.14-.14-.21-.2l-.21-.21-.21-.21-.21-.21a2612306349968.13,2612306349968.13,0,0,0-.42-.42l-.21-.21-.21-.21-.21-.21-.2-.21a2612306349969.2,2612306349969.2,0,0,0-.42-.42c-.08-.06-.14-.14-.21-.2s-.14-.15-.21-.21l-.21-.21-.21-.21c-.07-.07-.14-.15-.21-.21l-.21-.21-.21-.21c-.07-.07-.13-.14-.21-.21l-.21-.21-.21-.21c-.07-.06-.13-.14-.2-.21a2.08,2.08,0,0,1-.21-.21c-.08-.06-.14-.14-.21-.2s-.14-.15-.21-.21l-.21-.21-.21-.21a2612306350149.1,2612306350149.1,0,0,1-.42-.42l-.21-.21c-.07-.07-.13-.14-.21-.21l-.21-.21a11.34,11.34,0,0,0-18,3.38,19.13,19.13,0,0,0-1.37,3.87q-8.91,35.13-17.75,70.28a17.21,17.21,0,0,0-.53,4.68,11.2,11.2,0,0,0,3.85,8.17c.07.06.13.14.2.21a2.08,2.08,0,0,1,.21.21c.08.06.14.14.21.2l.21.21.21.21c.07.07.14.15.21.21a2.08,2.08,0,0,0,.21.21,2.08,2.08,0,0,0,.21.21c.07.07.13.14.21.21l.21.21.21.21c.07.06.13.14.21.21s.13.14.2.21a746373242882.79,746373242882.79,0,0,0,.42.42c.08.06.14.14.21.2l.21.21.21.21a2.08,2.08,0,0,0,.21.21,2.08,2.08,0,0,0,.21.21l.21.21.21.21.21.21.2.21a2.08,2.08,0,0,1,.21.21,2.08,2.08,0,0,1,.21.21c.08.06.14.14.21.2l.21.21.21.21a1306153174947.47,1306153174947.47,0,0,1,.42.42,2.08,2.08,0,0,0,.21.21l.21.21.21.21.21.21.21.21c.07.06.13.14.2.21a2.08,2.08,0,0,1,.21.21c.08.06.14.14.21.2s.14.15.21.21l.21.21.21.21a2612306350142.13,2612306350142.13,0,0,0,.42.42l.21.21c.07.07.13.14.21.21l.21.21c.07.06.13.14.2.21a2612306350142.49,2612306350142.49,0,0,0,.42.42,11.68,11.68,0,0,0,5.15,2.72,11.31,11.31,0,0,0,12.56-5.8,21.67,21.67,0,0,0,1.7-4.75c1.76-6.73,3.43-13.5,5.15-20.24.28-1.08.65-2.14,1.06-3.46l27.43,4.87c-.16,1.15-.3,2.29-.43,3.43-.41,3.66-1.07,7.36-.87,11A10.29,10.29,0,0,0,363,694.1l.21.21.21.2.21.21.21.21.21.21.21.21c.07.07.13.14.21.21l.2.21.21.21.21.21.21.21.21.21.21.2a2.08,2.08,0,0,0,.21.21l.21.21.21.21.21.21.21.21.21.21.2.21.21.21.21.21.21.21.21.21.21.2.21.21.21.21.21.21.21.21.21.21.21.21.2.21.21.21.21.21.21.21.21.21.21.2.21.21c.07.08.14.14.21.21l.21.21.21.21.21.21.21.21.2.21.21.21.21.21.21.21.21.21.21.2.21.21a11.74,11.74,0,0,0,6.86,3.41,11.28,11.28,0,0,0,11.77-6.76,19,19,0,0,0,1.29-4.87q4.94-35.28,9.76-70.56a16.23,16.23,0,0,0-.05-4.72,11.45,11.45,0,0,0-3.6-6.65"></path><path d="M595.87,654.91l0-.07-.16-.14,0-.06c-.05-.06-.11-.1-.16-.15l-.05-.06c0-.06-.11-.1-.16-.15l0-.06c-.05-.06-.11-.1-.16-.15l0-.06c-.05-.06-.11-.1-.16-.15l-.05-.06-.16-.15-.05-.06-.16-.15,0-.06c-.05,0-.11-.09-.16-.15l-.05-.06s-.11-.09-.16-.15l-.05-.06c0-.05-.11-.09-.16-.15l0-.06c-.05,0-.11-.09-.16-.15l0-.06s-.1-.09-.15-.14l-.05-.07-.16-.14,0-.06c-.05-.06-.11-.1-.16-.15l-.05-.06c0-.06-.11-.1-.16-.15l-.05-.06c0-.06-.11-.1-.16-.15l0-.06-.16-.15,0-.06-.16-.15-.05-.06-.16-.15,0-.06c-.05,0-.11-.09-.16-.15l0-.06s-.11-.09-.16-.15l-.05-.06-.16-.14a.18.18,0,0,0,0-.07c-.05,0-.11-.09-.15-.14L591,650s-.1-.09-.15-.14l-.05-.07-.16-.14,0-.06c-.05-.06-.11-.1-.16-.15l0-.06c0-.06-.11-.1-.16-.15l-.05-.06c0-.06-.11-.1-.16-.15l0-.06c-.05-.06-.11-.1-.16-.15l0-.06-.16-.15-.05-.06-.16-.15,0-.06c-.05-.05-.11-.09-.16-.15l0-.06s-.11-.09-.16-.15l-.05-.06c0-.05-.11-.09-.16-.15l0-.06c-.05-.05-.11-.09-.15-.14l-.06-.07s-.1-.09-.15-.14l-.05-.07-.16-.14,0-.06c-.05-.06-.11-.1-.16-.15l0-.06c0-.06-.11-.1-.16-.15l-.05-.06c0-.06-.11-.1-.16-.15l0-.06-.16-.15,0-.06-.16-.15-.05-.06s-.11-.09-.16-.15l0-.06c-.05-.05-.11-.09-.16-.15l0-.06c-.05,0-.11-.09-.16-.15l-.05-.06s-.11-.09-.16-.15l0-.06c0-.05-.11-.09-.16-.14l0-.07s-.1-.09-.15-.14a.18.18,0,0,1-.05-.07l-.16-.14,0-.06c-.05-.06-.11-.1-.16-.15l0-.06a53.56,53.56,0,0,0-5-4.37L576.72,637c.22-.4.44-.81.67-1.2a39.11,39.11,0,0,0,5.25-24.64,30,30,0,0,0-9.31-19.35l-.21-.21-.21-.21-.21-.21-.21-.21c-.07-.07-.13-.14-.21-.21l-.21-.21-.21-.21c-.07-.06-.13-.14-.2-.21a2.08,2.08,0,0,1-.21-.21c-.08-.06-.14-.14-.21-.2s-.14-.15-.21-.21l-.21-.21-.21-.21-.21-.21-.21-.21-.21-.21c-.07-.07-.13-.14-.21-.21l-.21-.21-.2-.21a653076587667.83,653076587667.83,0,0,1-.42-.42c-.08-.06-.14-.14-.21-.2s-.14-.15-.21-.21-.14-.15-.21-.21l-.21-.21-.21-.21-.21-.21-.21-.21c-.07-.07-.13-.14-.21-.21s-.13-.14-.21-.21l-.21-.21c-.07-.06-.13-.14-.2-.21a2.08,2.08,0,0,1-.21-.21l-.21-.2c-.07-.07-.14-.15-.21-.21s-.14-.15-.21-.21l-.21-.21-.21-.21-.21-.21-.21-.21c-.07-.07-.13-.14-.21-.21s-.13-.14-.21-.21l-.21-.21c-.07-.06-.13-.14-.2-.21a2.08,2.08,0,0,1-.21-.21c-.08-.06-.14-.14-.21-.2s-.14-.15-.21-.21-.14-.15-.21-.21l-.21-.21-.21-.21c-6.52-6.1-15.86-8.82-26.12-6.71-10.79,2.23-19.59,8.16-27.52,15.47-2.91,2.69-3.68,6.33-3,10.22.45,2.38,1,4.74,1.54,7.11l9.87,43.85c1.3,5.77,2.58,11.54,3.95,17.28a21.32,21.32,0,0,0,1.63,4.77,11.65,11.65,0,0,0,2.39,3.16l.21.21.21.21.21.2a1306153174887.95,1306153174887.95,0,0,1,.42.42l.2.21c.08.07.14.14.21.21l.21.21.21.21.21.21.21.21.21.21.21.21.21.21c.07.06.13.14.21.2a1306153174887.95,1306153174887.95,0,0,1,.42.42l.2.21c.08.07.14.14.21.21l.21.21.21.21.21.21.21.21.21.21.21.21.21.2.21.21a1306153174887.24,1306153174887.24,0,0,1,.42.42l.2.21c.08.07.14.14.21.21l.21.21.21.21.21.21.21.21.21.21.21.21.21.2.21.21a2.08,2.08,0,0,0,.21.21c.07.07.13.14.21.21l.2.21.21.21.21.21.21.21.21.21.21.21.21.21.21.21c.07.06.14.14.21.21a11.3,11.3,0,0,0,10.63,2.87A11.05,11.05,0,0,0,555.32,679a47.43,47.43,0,0,0-1.4-8.72c-1.08-5.14-2.29-10.26-3.49-15.62a39.7,39.7,0,0,0,4-1.56c2-1.06,3.42-.54,5.05.92,6.79,6,13.68,11.92,20.56,17.84,6.16,5.3,15.58,3.22,18.48-4.16A11.42,11.42,0,0,0,596,655.05s-.1-.09-.15-.14m-53.56-42.59a37.14,37.14,0,0,1,6.38-3.38,14.75,14.75,0,0,1-6.6,8.83c-.22-1-.44-2-.67-3a2,2,0,0,1,.89-2.45"></path><path d="M494.39,626.06l-.21-.21-.21-.21-.21-.21-.21-.21-.21-.21-.21-.21-.2-.2a2.18,2.18,0,0,0-.22-.21l-.2-.21-.21-.21-.21-.21-.21-.21-.21-.21-.21-.21-.21-.21-.21-.21-.21-.21-.21-.21-.21-.21-.2-.2-.21-.21-.21-.21-.21-.21-.21-.21-.21-.21-.21-.21-.21-.21-.21-.21-.21-.21-.21-.2-.21-.22-.2-.2-.21-.21-.21-.21-.21-.21-.21-.21-.21-.21-.21-.21-.21-.21-.21-.21-.21-.21-.21-.21-.2-.2-.21-.21-.21-.21-.21-.21-.21-.21-.21-.21-.21-.21-.21-.21A44.77,44.77,0,1,0,420.65,679l.21.21.2.21.21.21.21.2.21.21.21.21.21.21.21.21.21.21.21.21.21.21.21.21.21.21.2.21.21.21.21.21.21.2.21.21.21.21.21.21.21.21.21.21.21.21.21.21.2.21.22.21.2.2.21.21.21.21.21.21.21.21.21.21.21.21.21.21.21.21.21.21.21.21.2.21.21.21.21.2.21.21.21.21.21.21.21.21.21.21.21.21.21.21.21.21.21.21.2.21a44.78,44.78,0,1,0,63.29-63.36m-53.2,31.73A21.54,21.54,0,0,1,463,636.19a22.27,22.27,0,0,1,8.91,2,21.67,21.67,0,0,1-19.7,30.68,22.32,22.32,0,0,1-9.09-2,21.24,21.24,0,0,1-1.9-9.06"></path><path d="M281.58,605.34a35.92,35.92,0,0,0-.36-4.41,12.05,12.05,0,0,0-3.27-6.65l-.21-.21-.21-.21-.21-.21-.21-.21c-.06-.07-.14-.14-.21-.21l-.2-.21-.21-.21-.21-.21-.21-.21-.21-.21-.21-.21-.21-.2-.21-.21-.21-.21-.21-.21-.21-.21-.21-.21-.2-.21-.21-.21-.21-.21-.21-.21-.21-.21-.21-.21-.21-.2-.21-.21-.21-.21a2.08,2.08,0,0,0-.21-.21l-.21-.21-.2-.21-.21-.21-.21-.21-.21-.21-.21-.21-.21-.21-.21-.21-.21-.2c-.07-.08-.14-.14-.21-.21l-.21-.21-.21-.21-.21-.21-.2-.21-.21-.21-.21-.21-.21-.21-.21-.21-.21-.21-.21-.2-.21-.21-.21-.21-.21-.21A11.39,11.39,0,0,0,253.26,582a39.85,39.85,0,0,0-3.93,2.66q-30.2,22-60.37,44a26.55,26.55,0,0,0-3.16,2.63,11.42,11.42,0,0,0-.36,16l.15.14.06.07.15.14.06.07.15.14.06.07.15.14.06.07.15.14.06.07c0,.05.1.08.15.13a.24.24,0,0,0,.06.08s.1.08.15.13l.06.08s.1.08.15.13l.05.08.16.13,0,.08.16.13a.56.56,0,0,1,.05.08c.05,0,.11.08.15.13a.24.24,0,0,1,.06.08c0,.05.11.08.15.13s0,.05.06.07.11.09.15.14l.06.07.15.14.06.07.15.14.06.07.15.14.06.07.15.14.06.07c0,.05.1.08.15.13a.24.24,0,0,0,.06.08s.1.08.15.13l.06.08s.1.08.15.13l.05.08.16.13.05.08.16.13a.56.56,0,0,1,0,.08c.05,0,.11.08.15.13s0,0,.06.07.11.09.15.14,0,.05.06.07.11.09.15.14l.06.07.15.14.06.07.15.14.06.07.15.14.06.07.15.13.06.08c0,.05.1.08.15.13a.24.24,0,0,0,.06.08s.1.08.15.13l.06.08s.1.08.15.13l0,.08.16.13.05.08.16.13a.56.56,0,0,1,.05.08s.11.08.15.13,0,0,.06.07.11.09.15.14,0,0,.06.07l.15.14.06.07.15.14.06.07.15.14.06.07.15.14.06.07a.93.93,0,0,0,.15.13.24.24,0,0,0,.06.08c0,.05.1.08.15.13l.06.08c0,.05.1.08.15.13l.06.08s.1.08.15.13l0,.08.16.13a.56.56,0,0,1,0,.08l.16.13a.56.56,0,0,1,.05.08c.05,0,.11.08.15.13s0,0,.06.07.11.09.15.14,0,0,.06.07l.15.14.06.07.15.14.06.07.15.14.06.07A11.79,11.79,0,0,0,212.4,659c2.68-2.22,5.51-4.25,8.18-6.48a3.81,3.81,0,0,1,4.58-.49c7.3,3.3,14.66,6.49,22,9.67l2.57,1.09c.1,3.3.17,6.61.52,9.88a11.38,11.38,0,0,0,3.77,7.41c.07.06.13.14.21.21l.21.21c.07.06.13.14.21.2a2.08,2.08,0,0,0,.21.21c.07.07.13.15.2.21l.21.21c.08.07.14.15.21.21l.21.21.21.21.21.21.21.21.21.21.21.21.21.21c.07.06.13.14.21.2a2.08,2.08,0,0,0,.21.21c.07.07.13.15.2.21s.14.15.21.21l.21.21.21.21.21.21.21.21.21.21c.07.06.13.14.21.21l.21.21.21.21c.07.06.13.14.21.2s.13.15.2.21l.21.21.21.21.21.21.21.21.21.21.21.21.21.21.21.21.21.21c.07.06.13.14.21.2a746373242881.73,746373242881.73,0,0,0,.42.42c.07.07.13.15.2.21l.21.21.21.21.21.21.21.21.21.21c.07.07.13.14.21.21l.21.21c.07.06.13.14.21.21s.13.14.21.21a11.39,11.39,0,0,0,19.07-7.35,29.6,29.6,0,0,0,.11-4.42q-1-36.71-2.1-73.41"></path><path d="M683,597.31l-.07-.06c-.05,0-.09-.1-.14-.15l-.07-.06s-.09-.1-.14-.15l-.07,0-.14-.16-.07,0-.14-.16-.07-.05c-.05,0-.09-.11-.14-.15l-.07-.06c0-.05-.09-.11-.14-.15l-.07-.06c-.05,0-.09-.11-.14-.15l-.07-.06-.14-.15-.07-.06a1.92,1.92,0,0,0-.14-.15l-.07-.06a1.92,1.92,0,0,0-.14-.15l-.07-.06-.13-.15-.07-.06a1,1,0,0,1-.14-.15l-.07-.06c-.05,0-.09-.1-.14-.15s0,0-.07-.06-.09-.1-.14-.15l-.07,0-.14-.16-.07,0s-.09-.11-.14-.15,0,0-.07-.06-.09-.11-.14-.15l-.07-.06c0-.05-.09-.11-.14-.15l-.07-.06s-.09-.11-.14-.15l-.07-.06-.14-.15-.07-.06a1.92,1.92,0,0,0-.14-.15l-.07-.06-.13-.15-.08-.06-.13-.15-.07-.06a1.92,1.92,0,0,1-.14-.15l-.07-.06a1,1,0,0,1-.14-.15s0,0-.07-.06-.09-.1-.14-.15l-.07,0-.14-.16-.07,0c0-.05-.09-.11-.14-.15s0,0-.07-.06-.09-.11-.14-.15l-.07-.06c0-.05-.09-.11-.14-.15l-.07-.06c0-.05-.09-.11-.14-.15l-.07-.06-.14-.15-.07-.06a1.92,1.92,0,0,0-.14-.15l-.07-.06-.13-.15-.08-.06-.13-.15-.08-.06-.13-.15-.07-.06s-.09-.1-.14-.15a.2.2,0,0,1-.07-.06c-.05,0-.09-.1-.14-.15l-.07-.05-.14-.16-.07,0c0-.05-.09-.11-.14-.15s0,0-.07-.06-.09-.11-.14-.15l-.07-.06s-.09-.11-.14-.15l-.07-.06-.14-.15-.07-.06a1.92,1.92,0,0,0-.14-.15l-.07-.06a1.92,1.92,0,0,0-.14-.15l-.07-.06-.13-.15-.08-.06-.13-.15-.07-.06a1,1,0,0,1-.14-.15l-.07-.06s-.09-.1-.14-.15l-.07,0-.14-.16-.07-.05-.14-.16a30.75,30.75,0,0,0-3.53-2.66q-28.34-19.08-56.7-38.14a20.43,20.43,0,0,0-4.42-2.41,11,11,0,0,0-11.3,1.89,11.12,11.12,0,0,0-3.94,10.76c1.21,8.24,2.47,16.47,3.56,24.72,1.75,13.17,3.33,26.36,5.1,39.53.62,4.6,1.38,9.19,2.41,13.7a12,12,0,0,0,2.84,5.49l.21.2.21.21a2.08,2.08,0,0,0,.21.21,2.08,2.08,0,0,0,.21.21,2.08,2.08,0,0,0,.21.21,2.08,2.08,0,0,0,.21.21c.06.08.14.14.2.21s.15.14.21.21a1306153174866.48,1306153174866.48,0,0,1,.42.42c.07.07.14.13.21.21l.21.2.21.21.21.21a1306153174865.42,1306153174865.42,0,0,1,.42.42,653076587679.11,653076587679.11,0,0,0,.42.42c.06.08.14.14.2.21s.15.14.21.21a1306153174865.77,1306153174865.77,0,0,1,.42.42c.07.07.14.13.21.21l.21.21.21.2c.07.08.14.14.21.21a1306153174864.72,1306153174864.72,0,0,1,.42.42,2.08,2.08,0,0,0,.21.21,2.08,2.08,0,0,0,.21.21l.21.21.2.21a1306153174865.06,1306153174865.06,0,0,1,.42.42l.21.21.21.21.21.2a2.08,2.08,0,0,0,.21.21,2.08,2.08,0,0,0,.21.21,2.08,2.08,0,0,0,.21.21,2.08,2.08,0,0,0,.21.21,2.08,2.08,0,0,0,.21.21c.06.08.14.14.2.21l.21.21a2.08,2.08,0,0,1,.21.21l.21.21.21.21.21.2.21.21.21.21a11.18,11.18,0,0,0,8.45,3.81,11.88,11.88,0,0,0,11.57-14.17c-.43-2.49-.93-5-1.54-7.43a4.23,4.23,0,0,1,1.75-4.91c6.81-5.15,13.49-10.48,20.32-15.6,3.37-2.54,2.84-2.1,6,0a72.27,72.27,0,0,0,7,4.38A11.38,11.38,0,0,0,683,597.31"></path><path class="cls-3" d="M328.75,634.79l36.57,6.5c.26-1.28.55-2.36.7-3.46,1.14-8.16,2.22-16.32,3.37-24.47a26.19,26.19,0,0,1,1-4.63,11.34,11.34,0,0,1,22,1.66,15.82,15.82,0,0,1,.05,4.71q-4.82,35.29-9.76,70.56a19.44,19.44,0,0,1-1.28,4.87,11.3,11.3,0,0,1-11.77,6.77c-5.29-.73-9.51-4.72-9.8-10-.2-3.65.46-7.34.87-11,.44-3.87,1-7.71,1.62-12l-39.29-7c-.41,1.32-.78,2.38-1.06,3.46-1.72,6.75-3.39,13.51-5.15,20.25a21.77,21.77,0,0,1-1.7,4.74,11.31,11.31,0,0,1-21.34-4.88,17.21,17.21,0,0,1,.53-4.68q8.84-35.16,17.75-70.28a19.13,19.13,0,0,1,1.37-3.87,11.36,11.36,0,0,1,21.59,5,23.32,23.32,0,0,1-.83,5.29c-1.6,6.56-3.29,13.1-4.93,19.65-.2.79-.31,1.61-.54,2.79"></path><path class="cls-4" d="M328.75,634.79l36.57,6.5c.26-1.28.55-2.36.7-3.46,1.14-8.16,2.22-16.32,3.37-24.47a26.19,26.19,0,0,1,1-4.63,11.34,11.34,0,0,1,22,1.66,15.82,15.82,0,0,1,.05,4.71q-4.82,35.29-9.76,70.56a19.44,19.44,0,0,1-1.28,4.87,11.3,11.3,0,0,1-11.77,6.77c-5.29-.73-9.51-4.72-9.8-10-.2-3.65.46-7.34.87-11,.44-3.87,1-7.71,1.62-12l-39.29-7c-.41,1.32-.78,2.38-1.06,3.46-1.72,6.75-3.39,13.51-5.15,20.25a21.77,21.77,0,0,1-1.7,4.74,11.31,11.31,0,0,1-21.34-4.88,17.21,17.21,0,0,1,.53-4.68q8.84-35.16,17.75-70.28a19.13,19.13,0,0,1,1.37-3.87,11.36,11.36,0,0,1,21.59,5,23.32,23.32,0,0,1-.83,5.29c-1.6,6.56-3.29,13.1-4.93,19.65C329.09,632.79,329,633.61,328.75,634.79Z"></path><path class="cls-3" d="M565.7,627.69c4.82,4,9.75,8.19,14.66,12.33a53.56,53.56,0,0,1,5,4.37A11.4,11.4,0,0,1,587.82,657c-2.9,7.38-12.32,9.46-18.48,4.16-6.88-5.92-13.77-11.81-20.55-17.84-1.64-1.45-3.06-2-5-.92a36.37,36.37,0,0,1-4,1.56c1.21,5.36,2.41,10.48,3.49,15.62a47.7,47.7,0,0,1,1.4,8.72,11.06,11.06,0,0,1-8.57,10.82,11.27,11.27,0,0,1-12.81-5.83,20.83,20.83,0,0,1-1.63-4.77c-1.37-5.74-2.65-11.51-3.95-17.28l-9.87-43.85c-.53-2.37-1.09-4.73-1.54-7.11-.73-3.89,0-7.53,3-10.22,7.93-7.31,16.73-13.24,27.52-15.47,18-3.71,33.32,7.51,35.22,25.85a39.11,39.11,0,0,1-5.25,24.64c-.32.54-.62,1.1-.92,1.66a4.35,4.35,0,0,0-.1.94M534.6,621c1.15-.36,1.87-.52,2.53-.81,1.45-.63,2.91-1.25,4.29-2a14.86,14.86,0,0,0,7.41-16.34c-.82-3.8-3-5.31-6.85-4.73s-7.13,2.46-10.33,4.52a2,2,0,0,0-.9,2.44c.47,2.06.9,4.12,1.37,6.17.79,3.47,1.6,6.94,2.48,10.76"></path><path class="cls-4" d="M565.7,627.69c4.82,4,9.75,8.19,14.66,12.33a53.56,53.56,0,0,1,5,4.37A11.4,11.4,0,0,1,587.82,657c-2.9,7.38-12.32,9.46-18.48,4.16-6.88-5.92-13.77-11.81-20.55-17.84-1.64-1.45-3.06-2-5-.92a36.37,36.37,0,0,1-4,1.56c1.21,5.36,2.41,10.48,3.49,15.62a47.7,47.7,0,0,1,1.4,8.72,11.06,11.06,0,0,1-8.57,10.82,11.27,11.27,0,0,1-12.81-5.83,20.83,20.83,0,0,1-1.63-4.77c-1.37-5.74-2.65-11.51-3.95-17.28l-9.87-43.85c-.53-2.37-1.09-4.73-1.54-7.11-.73-3.89,0-7.53,3-10.22,7.93-7.31,16.73-13.24,27.52-15.47,18-3.71,33.32,7.51,35.22,25.85a39.11,39.11,0,0,1-5.25,24.64c-.32.54-.62,1.1-.92,1.66A4.35,4.35,0,0,0,565.7,627.69ZM534.6,621c1.15-.36,1.87-.52,2.53-.81,1.45-.63,2.91-1.25,4.29-2a14.86,14.86,0,0,0,7.41-16.34c-.82-3.8-3-5.31-6.85-4.73s-7.13,2.46-10.33,4.52a2,2,0,0,0-.9,2.44c.47,2.06.9,4.12,1.37,6.17C532.91,613.74,533.72,617.21,534.6,621Z"></path><path class="cls-3" d="M452,691.94a44.76,44.76,0,1,1,44.9-44.53A44.81,44.81,0,0,1,452,691.94m-21.48-44.82a21.66,21.66,0,1,0,21.77-21.6,21.54,21.54,0,0,0-21.77,21.6"></path><path class="cls-4" d="M452,691.94a44.76,44.76,0,1,1,44.9-44.53A44.81,44.81,0,0,1,452,691.94Zm-21.48-44.82a21.66,21.66,0,1,0,21.77-21.6A21.54,21.54,0,0,0,430.53,647.12Z"></path><path class="cls-3" d="M249.49,656.43c-4.63-1.93-8.82-3.63-13-5.42-7.36-3.18-14.72-6.36-22-9.67a3.83,3.83,0,0,0-4.58.49c-2.66,2.24-5.5,4.26-8.17,6.48a11.79,11.79,0,0,1-16.3-1.08,11.42,11.42,0,0,1,.36-16,26.55,26.55,0,0,1,3.16-2.63q30.18-22,60.37-44a39.85,39.85,0,0,1,3.93-2.66,11.39,11.39,0,0,1,17.29,8.31,34.2,34.2,0,0,1,.36,4.41q1.06,36.71,2.1,73.41a29.74,29.74,0,0,1-.11,4.43,11.42,11.42,0,0,1-11.27,10.36,11.25,11.25,0,0,1-11.36-10.22c-.46-4.29-.43-8.63-.62-13-.05-1.14-.11-2.29-.16-3.26M248.25,631c.73-3,.3-14.23-.63-16.58l-13.93,10.19L248.25,631"></path><path class="cls-4" d="M249.49,656.43c-4.63-1.93-8.82-3.63-13-5.42-7.36-3.18-14.72-6.36-22-9.67a3.83,3.83,0,0,0-4.58.49c-2.66,2.24-5.5,4.26-8.17,6.48a11.79,11.79,0,0,1-16.3-1.08,11.42,11.42,0,0,1,.36-16,26.55,26.55,0,0,1,3.16-2.63q30.18-22,60.37-44a39.85,39.85,0,0,1,3.93-2.66,11.39,11.39,0,0,1,17.29,8.31,34.2,34.2,0,0,1,.36,4.41q1.06,36.71,2.1,73.41a29.74,29.74,0,0,1-.11,4.43,11.42,11.42,0,0,1-11.27,10.36,11.25,11.25,0,0,1-11.36-10.22c-.46-4.29-.43-8.63-.62-13C249.6,658.55,249.54,657.4,249.49,656.43ZM248.25,631c.73-3,.3-14.23-.63-16.58l-13.93,10.19Z"></path><path class="cls-3" d="M614.62,643.11A11.27,11.27,0,0,1,603.53,634c-1-4.51-1.8-9.11-2.41-13.7-1.77-13.17-3.35-26.36-5.1-39.53-1.09-8.25-2.35-16.48-3.56-24.72a11.12,11.12,0,0,1,3.94-10.76,11,11,0,0,1,11.3-1.89,20.43,20.43,0,0,1,4.42,2.41q28.36,19,56.7,38.14a30.75,30.75,0,0,1,3.53,2.66,11.38,11.38,0,0,1-12.69,18.69,71.55,71.55,0,0,1-6.95-4.38c-3.15-2.05-2.63-2.48-6,0-6.83,5.13-13.5,10.46-20.31,15.61a4.22,4.22,0,0,0-1.76,4.9c.61,2.46,1.11,4.94,1.54,7.43a11.87,11.87,0,0,1-11.56,14.17m6-51.37,8.33-6.41c-3.81-3.3-7.4-5.52-9.75-6,.45,3.93.89,7.76,1.42,12.4"></path><path class="cls-4" d="M614.62,643.11A11.27,11.27,0,0,1,603.53,634c-1-4.51-1.8-9.11-2.41-13.7-1.77-13.17-3.35-26.36-5.1-39.53-1.09-8.25-2.35-16.48-3.56-24.72a11.12,11.12,0,0,1,3.94-10.76,11,11,0,0,1,11.3-1.89,20.43,20.43,0,0,1,4.42,2.41q28.36,19,56.7,38.14a30.75,30.75,0,0,1,3.53,2.66,11.38,11.38,0,0,1-12.69,18.69,71.55,71.55,0,0,1-6.95-4.38c-3.15-2.05-2.63-2.48-6,0-6.83,5.13-13.5,10.46-20.31,15.61a4.22,4.22,0,0,0-1.76,4.9c.61,2.46,1.11,4.94,1.54,7.43A11.87,11.87,0,0,1,614.62,643.11Zm6-51.37,8.33-6.41c-3.81-3.3-7.4-5.52-9.75-6C619.64,583.27,620.08,587.1,620.61,591.74Z"></path><path d="M517.68,507.87c-3.34-5-7-9.76-10.62-14.57-3.37-4.49-6.52-8.93-7.36-14.81a9.92,9.92,0,0,0-3.45-6.09c-.08-.07-.15-.16-.23-.23l-.22-.22-.23-.23c-.08-.07-.14-.16-.23-.23l-.22-.22c-.08-.07-.15-.16-.23-.23l-.22-.22c-.08-.07-.15-.16-.23-.23l-.22-.22-.23-.23c-.08-.07-.14-.15-.22-.22l-.23-.23a7.16,7.16,0,0,1-.45-.45l-.23-.23c-.08-.07-.14-.15-.22-.22l-.23-.23c-.08-.07-.14-.15-.22-.22s-.15-.16-.23-.23l-.22-.22-.23-.23c-.08-.07-.14-.16-.23-.23l-.22-.22c-.08-.07-.15-.16-.23-.23l-.22-.22c-.08-.07-.15-.16-.23-.23l-.22-.22-.23-.23c-.08-.07-.14-.15-.22-.22l-.23-.23c-.08-.07-.14-.16-.23-.23s-.14-.15-.22-.22l-.23-.23c-.08-.07-.14-.15-.22-.22l-.23-.23c-.08-.07-.14-.15-.22-.22s-.15-.16-.23-.23-.14-.16-.22-.22l-.23-.23c-.08-.07-.14-.16-.23-.23l-.22-.22c-.08-.07-.15-.16-.23-.23l-.22-.22-.23-.23-.22-.22-.23-.23a7.16,7.16,0,0,1-.45-.45c-.08-.07-.15-.16-.23-.23l-.22-.22a11.89,11.89,0,0,0-6.7-3,11.44,11.44,0,0,0-11.63,6.56,37.77,37.77,0,0,0-1.47,3.83A282.06,282.06,0,0,1,443,516.05a87.2,87.2,0,0,1-14.88,19.21c-4.11,3.9-8.66,7.1-14.23,8.54a24.82,24.82,0,0,1-5.64.8c1.2-.41,2.38-.83,3.5-1.34,6-2.7,10.79-7,15.08-11.85,6.83-7.74,11.83-16.41,13.23-26.85a25.62,25.62,0,0,0-7.21-21.88l-.23-.22-.22-.23-.23-.23-.22-.22-.23-.23c-.08-.07-.15-.15-.22-.22l-.23-.23-.23-.22a2.39,2.39,0,0,0-.22-.23l-.23-.22-.22-.23-.23-.23-.22-.22-.23-.23-.22-.22-.23-.23-.23-.22a2.39,2.39,0,0,0-.22-.23c-.08-.07-.15-.15-.23-.23l-.22-.22-.23-.23-.22-.22-.23-.23c-.08-.07-.15-.15-.22-.22l-.23-.23-.23-.22a2.39,2.39,0,0,0-.22-.23l-.23-.22-.22-.23-.23-.23-.22-.22-.23-.23-.23-.22-.22-.23-.23-.22a2.39,2.39,0,0,0-.22-.23l-.23-.22-.22-.23-.23-.23-.22-.22-.23-.23-.23-.22-.22-.23-.23-.22-.22-.23-.23-.23-.22-.22-.23-.23-.22-.22-.23-.23a22,22,0,0,0-4.4-3.37c-7.77-4.48-15.73-4.17-23.65-.37a35.33,35.33,0,0,0-14,12.52C369.68,494.85,365,511,366.18,528.7a42.11,42.11,0,0,0,11.44,26.53l.23.23.22.22.23.23.22.22.23.23.22.23a2.39,2.39,0,0,1,.23.22c.07.08.15.15.23.23l.22.22.23.23c.07.08.15.15.22.22l.23.23.22.22.23.23.22.23.23.22.23.23.22.22c.07.08.15.15.23.23l.22.22.23.23.22.23a2.39,2.39,0,0,1,.23.22l.23.23.22.22.23.23.22.22.23.23c.07.08.15.15.22.22l.23.23.22.23a2.39,2.39,0,0,1,.23.22l.23.23.22.22.23.23.22.22.23.23.22.22.23.23.22.22c.08.08.16.15.23.23l.23.23.22.22.23.23.22.22.23.23.22.22.23.23.22.23a2.39,2.39,0,0,1,.23.22c8.25,8.74,20.3,13.61,33.82,12.61,11.72-.87,21.67-5.86,30.44-13.46.94-.81,1.88-1.65,3-2.67,1.05,1,1.84,1.67,2.6,2.39a31.38,31.38,0,0,0,13.42,7.46c13.71,3.7,26,.45,36.81-8.24,12.39-9.93,18-22.84,15.53-38.83a44,44,0,0,0-6.88-17.9m-28.58,5.78a19.23,19.23,0,0,1-14.78,25.73,288.22,288.22,0,0,0,14.15-27.24c.22.5.44,1,.63,1.51"></path><path d="M611.11,493a11.22,11.22,0,0,0-3.05-6.21l-.22-.23a2.39,2.39,0,0,0-.23-.22l-.22-.23c-.07-.08-.15-.15-.23-.23l-.22-.22c-.08-.08-.16-.15-.23-.23l-.22-.22-.23-.23a2.39,2.39,0,0,0-.23-.22l-.22-.23-.23-.23c-.07-.07-.15-.14-.22-.22l-.23-.23-.22-.22-.23-.23-.22-.22c-.08-.08-.16-.15-.23-.23a2.39,2.39,0,0,0-.23-.22l-.22-.23c-.07-.08-.15-.15-.23-.23s-.15-.14-.22-.22l-.23-.23-.22-.22-.23-.23c-.07-.08-.15-.15-.22-.22l-.23-.23a2.39,2.39,0,0,0-.23-.22l-.22-.23a2.39,2.39,0,0,0-.23-.22l-.22-.23-.23-.23-.22-.22-.23-.23a2.39,2.39,0,0,0-.23-.22l-.22-.23a2.39,2.39,0,0,0-.23-.22l-.22-.23-.23-.23-.22-.22c-.07-.08-.15-.15-.23-.23s-.15-.15-.22-.22-.16-.15-.23-.23a2.39,2.39,0,0,0-.23-.22l-.22-.23a2.39,2.39,0,0,0-.23-.22l-.22-.23-.23-.23c-.07-.07-.15-.14-.22-.22l-.23-.23c-.07-.08-.15-.15-.22-.22a10.78,10.78,0,0,0-5.91-3.36,15.77,15.77,0,0,0-5.93.05c-7.77,1.52-15.49,3.24-23.23,4.89-7.42,1.59-14.88,3-22.26,4.8a11.29,11.29,0,0,0-8.7,12.59,10.69,10.69,0,0,0,2.7,5.83c.07.08.15.15.22.22s.16.15.23.23l.23.23c.06.08.15.14.22.22s.16.15.23.23.15.14.22.22.16.15.23.23.15.14.22.22l.23.23c.07.08.15.15.22.22s.16.15.23.23l.22.23c.07.08.16.14.23.22l.23.23c.06.08.15.14.22.22s.16.15.23.23.15.14.22.22.16.15.23.23l.22.22c.07.09.16.15.23.23s.15.15.23.23.15.14.22.22.16.15.23.23l.22.22.23.23c.07.08.15.14.22.22l.23.23.22.23c.07.08.16.14.23.22l.23.23c.06.08.15.14.22.22s.16.15.23.23.15.14.22.22l.23.23.22.22c.07.08.16.15.23.23s.15.15.22.22.16.15.23.23l.23.23c.06.08.15.14.22.22s.16.15.23.23.15.14.22.22.16.15.23.23l.22.22.23.23.22.23c.07.08.16.14.23.22l.23.23c.06.08.15.14.22.22l.23.23a12.92,12.92,0,0,0,10,4.27c1-.14,2.82-.3,4.57-.67q20.43-4.33,40.83-8.77a20,20,0,0,0,5.06-1.76A11.24,11.24,0,0,0,611.11,493"></path><path d="M342.63,525.43l-.23-.23-.22-.22c-.07-.09-.16-.15-.23-.23l-.22-.23c-.07-.08-.16-.14-.23-.22l-.23-.23c-.06-.08-.15-.14-.22-.22l-.23-.23-.22-.22-.23-.23-.22-.22c-.07-.09-.16-.15-.23-.23l-.22-.23c-.07-.08-.16-.14-.23-.22l-.23-.23c-.06-.08-.15-.14-.22-.22l-.23-.23-.22-.22-.23-.23-.22-.23c-.07-.08-.16-.14-.23-.22l-.22-.23c-.07-.08-.16-.14-.23-.22s-.15-.15-.23-.23-.15-.14-.22-.22l-.23-.23-.22-.22-.23-.23-.22-.22c-.07-.09-.16-.15-.23-.23l-.22-.23c-.07-.08-.16-.14-.23-.22l-.23-.23c-.07-.08-.15-.14-.22-.22l-.23-.23-.22-.22-.23-.23-.22-.23c-.07-.08-.16-.14-.23-.22l-.22-.23c-.07-.08-.16-.14-.23-.22l-.23-.23-.22-.22c-.07-.08-.15-.15-.23-.23l-.22-.22c-.07-.09-.16-.15-.23-.23l-.22-.23c-.07-.08-.16-.14-.23-.22l-.22-.23c-.07-.08-.16-.14-.23-.22a11.64,11.64,0,0,0-9-4,17.44,17.44,0,0,0-4.05.58q-17.31,4.46-34.59,9a17.59,17.59,0,0,0-3.83,1.46,11.38,11.38,0,0,0-5.73,12.87,10.89,10.89,0,0,0,2.89,5.06l.22.23.23.23.22.22.23.23.22.22.23.23a2.39,2.39,0,0,0,.23.22l.22.23a2.39,2.39,0,0,0,.23.22l.22.23.23.23.22.22.23.23.23.22.22.23a2.39,2.39,0,0,0,.23.22l.22.23c.07.08.15.15.23.23l.22.22.23.23.22.22.23.23.23.22.22.23a2.39,2.39,0,0,0,.23.22l.22.23.23.23.22.22.23.23.22.22.23.23a2.39,2.39,0,0,0,.23.22l.22.23a2.39,2.39,0,0,0,.23.22l.22.23.23.23.22.22.23.23.22.22.23.23.23.22.22.23a2.39,2.39,0,0,0,.23.22l.22.23.23.23.22.22.23.23.22.22.23.23a2.39,2.39,0,0,0,.23.22,12.55,12.55,0,0,0,9.26,3.72c.65-.11,2-.25,3.34-.58q14.73-3.68,29.44-7.44a67.25,67.25,0,0,0,7.85-2.44,11.31,11.31,0,0,0,4.41-18.26"></path><path class="cls-5" d="M444.69,551.49c-1.16,1-2.09,1.85-3,2.67-8.77,7.59-18.72,12.58-30.43,13.45-24,1.78-43.38-14.92-45-38.91-1.22-17.69,3.5-33.85,13.33-48.52a35.33,35.33,0,0,1,14-12.52c7.92-3.8,15.88-4.11,23.65.37,8.29,4.78,12.75,14.79,11.38,25-1.4,10.43-6.39,19.1-13.23,26.85-4.29,4.86-9.1,9.14-15.07,11.84-2.75,1.25-5.7,2-8.86,3.12a13.3,13.3,0,0,0,5,6.17c5.38,3.77,11.3,4.38,17.53,2.76,5.57-1.44,10.12-4.64,14.23-8.54A87.2,87.2,0,0,0,443,516.05a282.33,282.33,0,0,0,22.17-47.55,37.06,37.06,0,0,1,1.47-3.84,11.42,11.42,0,0,1,11.63-6.55c4.76.48,9.22,4,9.92,8.88.85,5.87,4,10.32,7.37,14.81,3.61,4.8,7.28,9.58,10.62,14.57a44,44,0,0,1,6.87,17.89c2.47,16-3.14,28.9-15.52,38.84-10.82,8.68-23.1,11.94-36.81,8.24a31.3,31.3,0,0,1-13.42-7.47c-.77-.72-1.55-1.42-2.61-2.38m33.78-54.09c-5.84,12.74-11.74,24.7-19.21,36.22A34.2,34.2,0,0,1,462,536c2.9,3.15,6.6,4,10.64,3.69a19.26,19.26,0,0,0,16.51-26c-2.23-6-6.3-10.85-10.63-16.25m-87.16,12.53c.2,0,.46.13.58.05,6.4-4.5,11.12-10.3,13.34-17.89a14.66,14.66,0,0,0,0-3.93c-5.83,1.6-12.92,12.86-14,21.77"></path><path class="cls-5" d="M543.27,504.39c-6.82,0-11.76-4.18-12.51-9.88a11.29,11.29,0,0,1,8.7-12.59c7.38-1.79,14.84-3.21,22.27-4.8,7.73-1.65,15.45-3.37,23.22-4.89a15.77,15.77,0,0,1,5.93-.05,11.06,11.06,0,0,1,8.72,9.34,11.22,11.22,0,0,1-5.88,11.67,20.31,20.31,0,0,1-5.05,1.76q-20.4,4.46-40.83,8.76c-1.75.37-3.55.53-4.57.68"></path><path class="cls-5" d="M286.09,542.64c-6.1,0-10.61-3.46-11.93-8.55a11.38,11.38,0,0,1,5.73-12.87,17.59,17.59,0,0,1,3.83-1.46q17.28-4.54,34.59-9a17.44,17.44,0,0,1,4.05-.58,11.37,11.37,0,0,1,4.36,22,71.31,71.31,0,0,1-7.85,2.44q-14.72,3.78-29.44,7.44c-1.33.33-2.7.46-3.34.57"></path><path d="M830.85,265.43a2.73,2.73,0,0,0-.23-.25l-.24-.26-.24-.25-.23-.25-.24-.25-.24-.25c-.07-.09-.16-.17-.23-.25l-.24-.25-.24-.26-.24-.25-.23-.25-.24-.25-.24-.25a2.73,2.73,0,0,0-.23-.25l-.24-.25-.24-.25a2.73,2.73,0,0,0-.23-.25l-.24-.26-.24-.25c-.07-.08-.16-.16-.23-.25l-.24-.25-.24-.25c-.07-.09-.16-.17-.23-.25l-.24-.25-.24-.25-.24-.26-.23-.25-.24-.25-.24-.25a2.73,2.73,0,0,0-.23-.25l-.24-.25-.24-.25a2.73,2.73,0,0,0-.23-.25l-.24-.26-.24-.25c-.07-.08-.16-.16-.23-.25l-.24-.25-.24-.25c-.07-.09-.16-.17-.23-.25l-.24-.25-.24-.25c-.07-.09-.16-.17-.24-.26l-.23-.25-.24-.25-.24-.25a2.73,2.73,0,0,0-.23-.25l-.24-.25-.24-.25c-.07-.09-.15-.17-.23-.26l-.24-.25a11.62,11.62,0,0,0-10-3.9c-7.8.95-12.6,7.26-11.28,14.62a14.38,14.38,0,0,1-.11,5c-.51,2.8-1.24,5.56-2,8.3a65.83,65.83,0,0,1-13.37,25.54,47.34,47.34,0,0,0-9.64-20.46c-.54-.65-1.1-1.27-1.67-1.86l-.24-.25-.23-.25-.24-.25-.24-.25-.23-.25-.24-.26-.24-.25-.23-.25-.24-.25-.24-.25-.23-.25-.24-.25-.24-.25c-.08-.09-.16-.17-.23-.26l-.24-.25-.24-.25-.24-.25-.23-.25-.24-.25-.24-.25c-.07-.09-.15-.17-.23-.26l-.24-.25-.24-.25-.23-.25-.24-.25-.24-.25-.23-.25-.24-.25-.24-.26a2.73,2.73,0,0,1-.23-.25l-.24-.25-.24-.25-.24-.25-.23-.25-.24-.25-.24-.25-.23-.26-.24-.25-.24-.25-.23-.25-.24-.25-.24-.25-.23-.25-.24-.25-.24-.26a2.73,2.73,0,0,1-.23-.25l-.24-.25-.24-.25-.24-.25-.23-.25c-8-8.53-19-11-30.21-6.69a36.83,36.83,0,0,0-9.08,5.07,10.59,10.59,0,0,0-2.28-3.12l-.23-.25-.24-.26c-.08-.08-.15-.17-.24-.25l-.23-.25c-.09-.08-.16-.17-.24-.25s-.15-.17-.24-.25l-.23-.25c-.09-.08-.16-.17-.24-.25a2.83,2.83,0,0,0-.24-.25c-.08-.08-.15-.18-.24-.26l-.23-.25c-.08-.08-.15-.17-.24-.25s-.15-.17-.24-.25l-.23-.25c-.08-.08-.15-.17-.24-.25s-.15-.17-.24-.25-.15-.18-.23-.25l-.24-.26c-.08-.08-.15-.17-.24-.25l-.23-.25c-.09-.08-.16-.17-.24-.25s-.15-.17-.24-.25L712,257c-.09-.08-.16-.17-.24-.25a2.83,2.83,0,0,0-.24-.25,1.9,1.9,0,0,0-.24-.25c-.08-.09-.15-.18-.23-.26s-.15-.17-.24-.25-.15-.17-.24-.25l-.23-.25c-.08-.08-.15-.17-.24-.25s-.15-.17-.24-.25-.15-.18-.23-.25a2.89,2.89,0,0,0-.24-.25,3,3,0,0,0-.24-.26l-.23-.25c-.09-.08-.16-.17-.24-.25s-.15-.17-.24-.25l-.23-.25c-.09-.08-.16-.17-.24-.25a2.83,2.83,0,0,0-.24-.25,3,3,0,0,0-.24-.26l-.23-.25c-.08-.08-.15-.17-.24-.25s-.15-.17-.24-.25l-.23-.25c-.08-.08-.15-.17-.24-.25s-.15-.17-.24-.25-.15-.18-.23-.25l-.24-.26c-.27-.26-.56-.5-.85-.74a11,11,0,0,0-2.09-3.57c-.07-.09-.16-.17-.23-.25l-.24-.25-.24-.25c-.07-.09-.16-.17-.24-.26s-.16-.16-.23-.25l-.24-.25c-.07-.09-.16-.16-.24-.25s-.16-.16-.23-.25l-.24-.25a2.83,2.83,0,0,0-.24-.25c-.07-.09-.16-.17-.23-.25l-.24-.26c-.07-.09-.16-.16-.24-.25s-.16-.16-.23-.25l-.24-.25c-.07-.09-.16-.16-.24-.25s-.16-.17-.23-.25l-.24-.25-.24-.25c-.07-.09-.16-.17-.24-.26s-.16-.16-.23-.25l-.24-.25c-.07-.09-.16-.16-.24-.25s-.16-.16-.23-.25l-.24-.25a2.83,2.83,0,0,0-.24-.25c-.07-.09-.16-.17-.23-.26l-.24-.25c-.07-.09-.16-.16-.24-.25s-.16-.16-.23-.25l-.24-.25-.24-.25c-.07-.09-.16-.17-.23-.25l-.24-.25-.24-.26-.24-.25c-.07-.09-.16-.16-.23-.25l-.24-.25c-.07-.09-.16-.16-.24-.25s-.16-.17-.23-.25l-.24-.25a2.83,2.83,0,0,0-.24-.25c-.07-.09-.16-.17-.23-.26l-.24-.25c-.07-.09-.16-.16-.24-.25s-.16-.16-.23-.25l-.24-.25-.24-.25c-.07-.09-.16-.17-.23-.25l-.24-.25a11.52,11.52,0,0,0-18,1.21,53.51,53.51,0,0,0-3.92,7.92c-1.63,3.69-1.2,3.12-4.82,3.14-17.1.13-34.19.16-51.29.42A477.3,477.3,0,0,0,556,250.19c-9.1,1.22-18.21,2.3-27.29,3.65a39.45,39.45,0,0,0-8.49,2.39,11.12,11.12,0,0,0-7,11.64,10.58,10.58,0,0,0,2.9,6.45,2.73,2.73,0,0,0,.23.25l.24.25.24.25c.07.09.15.17.23.26l.24.25.24.25a2.73,2.73,0,0,0,.23.25l.24.25.24.25c.07.09.16.17.23.25l.24.25.24.26c.07.08.16.16.23.25l.24.25.24.25a2.83,2.83,0,0,0,.24.25,2.73,2.73,0,0,0,.23.25l.24.25.24.25c.07.09.15.17.23.26l.24.25.24.25a2.73,2.73,0,0,0,.23.25l.24.25.24.25c.07.09.16.17.23.25l.24.25.24.26c.07.08.16.16.23.25l.24.25.24.25a2.83,2.83,0,0,0,.24.25,2.73,2.73,0,0,0,.23.25l.24.25.24.26.23.25.24.25.24.25a2.73,2.73,0,0,0,.23.25l.24.25.24.25c.07.09.16.17.23.26l.24.25.24.25c.07.08.16.16.23.25l.24.25.24.25a2.83,2.83,0,0,0,.24.25,2.73,2.73,0,0,0,.23.25l.24.25a12.18,12.18,0,0,0,6.2,3.73,10.8,10.8,0,0,0,2.29.29,31.83,31.83,0,0,0-5.39,4A40.3,40.3,0,0,0,521,309q-1.87,4.43-3.61,8.91c-.25-.48-.48-1-.77-1.44a26.57,26.57,0,0,0-3.85-5l-.24-.25-.23-.25-.24-.25-.24-.25-.23-.25-.24-.25-.24-.25-.24-.26-.23-.25-.24-.25-.24-.25-.23-.25-.24-.25-.24-.25-.23-.25-.24-.26-.24-.25-.23-.25-.24-.25-.24-.25-.23-.25-.24-.25-.24-.25-.24-.26-.23-.25-.24-.25c-.08-.08-.15-.17-.24-.25l-.23-.25-.24-.25-.24-.25-.23-.25-.24-.26-.24-.25-.23-.25-.24-.25-.24-.25-.23-.25-.24-.25-.24-.25-.24-.26-.23-.25-.24-.25-.24-.25-.23-.25-.24-.25-.24-.25-.23-.26-.24-.25-.24-.25-.23-.25a20.23,20.23,0,0,0-16.35-6.25,30.38,30.38,0,0,0-19.84,8.7,54.32,54.32,0,0,0-14.57,22.3c-2.66,7.78-5,15.68-7.5,23.49-1.52,4.64-3,9.3-4.62,13.9.17-.95.33-1.9.51-2.85,1.45-7.9,2.89-15.78,2.84-23.85a31,31,0,0,0-3.16-14.39,18.6,18.6,0,0,0-2.87-4.08c-.07-.08-.16-.16-.23-.25l-.24-.25-.24-.25c-.07-.09-.16-.17-.23-.25l-.24-.25-.24-.26-.24-.25-.23-.25-.24-.25-.24-.25a2.73,2.73,0,0,0-.23-.25l-.24-.25-.24-.25c-.07-.09-.15-.17-.23-.26l-.24-.25-.24-.25c-.07-.08-.16-.16-.23-.25l-.24-.25-.24-.25c-.07-.09-.16-.17-.23-.25l-.24-.25-.24-.26-.24-.25-.23-.25-.24-.25-.24-.25a2.73,2.73,0,0,0-.23-.25l-.24-.25-.24-.25c-.07-.09-.15-.17-.23-.26l-.24-.25-.24-.25-.23-.25-.24-.25-.24-.25-.23-.25-.24-.25-.24-.26-.24-.25-.23-.25-.24-.25-.24-.25a2.73,2.73,0,0,0-.23-.25l-.24-.25-.24-.25c-.07-.09-.15-.17-.23-.26l-.24-.25-.24-.25-.23-.25-.24-.25c-4.41-4.93-11-6.52-17.74-4a28,28,0,0,0-9,5.78,73.42,73.42,0,0,0-11.32,13.18c-.14.21-.3.42-.45.62l-.22-.23-.24-.25a2.73,2.73,0,0,0-.23-.25l-.24-.25-.24-.26-.23-.25-.24-.25-.24-.25c-.07-.09-.16-.16-.23-.25l-.24-.25-.24-.25-.23-.25-.24-.26-.24-.25-.24-.25-.23-.25-.24-.25-.24-.25a2.73,2.73,0,0,0-.23-.25l-.24-.25-.24-.26-.23-.25-.24-.25-.24-.25c-.07-.08-.16-.16-.23-.25l-.24-.25-.24-.25-.23-.25A16.7,16.7,0,0,0,360.32,307a34.15,34.15,0,0,0-8.12,4.13,46.91,46.91,0,0,0-10.74,10.4l-.22-.22-.24-.25-.23-.25-.24-.26-.24-.25-.24-.25-.23-.25-.24-.25-.24-.25a2.73,2.73,0,0,0-.23-.25l-.24-.25-.24-.26-.23-.25-.24-.25-.24-.25-.23-.25-.24-.25-.24-.25-.23-.25-.24-.26-.24-.25-.24-.25-.23-.25-.24-.25a2.83,2.83,0,0,0-.24-.25,2.73,2.73,0,0,0-.23-.25l-.24-.25a11.5,11.5,0,0,0-10.32-3.57,12.11,12.11,0,0,0-8.92,6.44c-1.66,2.94-3.11,6-4.64,9a210.48,210.48,0,0,1-11.64,20.61,40.61,40.61,0,0,0-2.25-3.39,34,34,0,0,0-2.91-3.38l-.24-.25-.23-.25-.24-.25-.24-.25-.23-.25L293,339l-.24-.25a3,3,0,0,0-.24-.26l-.23-.25L292,338c-.08-.08-.15-.17-.24-.25l-.23-.25-.24-.25-.24-.25-.23-.25-.24-.26-.24-.25-.23-.25-.24-.25-.24-.25-.23-.25-.24-.25-.24-.25-.23-.26-.24-.25-.24-.25c-.08-.08-.15-.17-.24-.25l-.23-.25-.24-.25-.24-.25-.23-.25-.24-.26-.24-.25-.23-.25-.24-.25-.24-.25-.23-.25-.24-.25-.24-.25c-.08-.09-.15-.18-.23-.26l-.24-.25-.24-.25-.23-.25-.24-.25-.24-.25-.24-.25-.23-.25-.24-.26-.24-.25-.23-.25a26.69,26.69,0,0,0-11.13-7c-8-2.58-15.42-1-22.55,2.88-6.82,3.7-12.09,9.15-16.7,15.27a95.94,95.94,0,0,0-8.86,14.3q5.13-25,10.25-50c1.73-8.47,3.49-16.94,5.14-25.43a11.7,11.7,0,0,0-3.3-10.75,2.83,2.83,0,0,0-.24-.25c-.08-.09-.15-.18-.23-.26l-.24-.25c-.08-.08-.15-.17-.24-.25l-.23-.25-.24-.25c-.08-.08-.15-.17-.24-.25l-.23-.25-.24-.25-.24-.26c-.08-.08-.15-.17-.24-.25l-.23-.25-.24-.25c-.08-.08-.15-.17-.24-.25l-.23-.25-.24-.25a2.83,2.83,0,0,0-.24-.25c-.08-.09-.15-.18-.23-.26l-.24-.25c-.08-.08-.15-.17-.24-.25l-.23-.25-.24-.25c-.08-.08-.15-.17-.24-.25l-.23-.25-.24-.25-.24-.26c-.08-.08-.15-.17-.24-.25l-.23-.25-.24-.25c-.08-.08-.15-.17-.24-.25l-.23-.25-.24-.25a2.83,2.83,0,0,0-.24-.25c-.08-.09-.15-.18-.23-.26l-.24-.25c-.08-.08-.15-.17-.24-.25l-.23-.25-.24-.25c-.08-.08-.15-.17-.24-.25l-.23-.25-.24-.25-.24-.26c-.08-.08-.15-.17-.24-.25l-.23-.25-.24-.25c-.08-.08-.15-.17-.24-.25l-.23-.25-.24-.25-.24-.26-.23-.25a11.44,11.44,0,0,0-17.1.74,35.38,35.38,0,0,0-2.29,3l-48.29,68.26c0-.46,0-.92,0-1.39-.22-7.27-.38-14.56-.69-21.83a12.92,12.92,0,0,0-3.68-8.87l-.23-.25-.24-.25-.24-.25c-.08-.08-.15-.17-.24-.25l-.23-.25-.24-.26c-.08-.08-.15-.17-.24-.25l-.23-.25-.24-.25c-.08-.08-.15-.17-.24-.25l-.23-.25-.24-.25-.24-.26-.23-.25-.24-.25-.24-.25-.23-.25-.24-.25-.24-.25c-.08-.08-.15-.17-.24-.25l-.23-.26-.24-.25c-.08-.08-.15-.17-.24-.25l-.23-.25-.24-.25c-.08-.08-.15-.17-.24-.25l-.23-.25-.24-.25a3,3,0,0,0-.24-.26l-.23-.25-.24-.25-.24-.25-.23-.25-.24-.25-.24-.25a2.83,2.83,0,0,0-.24-.25c-.08-.09-.15-.18-.23-.26l-.24-.25c-.08-.08-.15-.17-.24-.25l-.23-.25-.24-.25c-.08-.08-.15-.17-.24-.25l-.23-.25-.24-.25a2.89,2.89,0,0,0-.24-.25c-.08-.09-.15-.18-.23-.26l-.24-.25-.24-.25-.23-.25-.24-.25a10.68,10.68,0,0,0-4.84-2.91,28.75,28.75,0,0,0-5.3-.88c-5.2-.4-8.94,1.95-11.41,6.42a26.81,26.81,0,0,0-1.47,3.49q-36.7,97.26-73.4,194.51a57.77,57.77,0,0,0-1.94,5.69,11.6,11.6,0,0,0,3.29,11.34c.09.08.16.17.24.25s.15.17.24.25l.23.25c.09.08.16.17.24.25s.15.17.24.25.15.18.23.26.16.17.24.25.15.17.24.25.15.17.24.25l.23.25c.08.08.15.17.24.25s.15.17.24.25l.23.25.24.26c.08.08.15.17.24.25l.23.25c.09.08.16.17.24.25s.15.17.24.25l.23.25c.09.08.16.17.24.25s.15.17.24.25.15.18.23.26.16.17.24.25.15.17.24.25.15.17.24.25l.23.25c.08.08.15.17.24.25s.15.17.24.25l.23.25c.08.08.15.18.24.26s.15.17.24.25l.23.25c.09.08.16.17.24.25s.15.17.24.25l.23.25c.09.08.16.17.24.25s.15.17.24.25.15.18.23.26.16.17.24.25.15.17.24.25.15.17.24.25l.23.25c.08.08.15.17.24.25s.15.17.24.25.15.18.23.25a3,3,0,0,0,.24.26c.08.08.15.17.24.25l.23.25c.09.08.16.17.24.25s.15.17.24.25a11.09,11.09,0,0,0,3.65,2.44,11.35,11.35,0,0,0,14.22-5,33.16,33.16,0,0,0,2.15-4.92q23.44-62.08,46.86-124.19a10.9,10.9,0,0,0,3.06,5.07c.08.08.15.17.24.25l.23.25c.09.08.15.17.24.25s.15.17.24.25l.23.25c.09.08.15.17.24.25a2.83,2.83,0,0,0,.24.25c.08.09.15.18.23.26s.16.17.24.25.15.17.24.25l.23.25c.09.08.16.17.24.25s.15.17.24.25.15.17.24.25.15.18.23.25.15.18.24.26.15.17.24.25l.23.25c.09.08.15.17.24.25s.15.17.24.25l.23.25c.09.08.15.17.24.25a2.83,2.83,0,0,0,.24.25c.08.08.15.18.23.26s.16.17.24.25.15.17.24.25l.23.25c.09.08.16.17.24.25s.15.17.24.25.15.17.24.25.15.18.23.26.15.17.24.25.15.17.24.25l.23.25c.09.08.15.17.24.25s.15.17.24.25l.23.25c.09.08.15.18.24.25s.15.18.24.26.15.17.23.25.16.17.24.25.15.17.24.25l.23.25c.09.08.16.17.24.25s.15.17.24.25a2.83,2.83,0,0,0,.24.25c.08.08.15.18.23.26s.15.17.24.25.15.17.24.25l.23.25a11.4,11.4,0,0,0,4.63,2.7c4.65,1.46,8.76.2,12.09-3.36a30.85,30.85,0,0,0,2.7-3.51l26.86-38q-1.57,7.76-3.16,15.5-6.81,33.33-13.61,66.67c-1.54,7.54-3.16,15.07-4.58,22.64a11.4,11.4,0,0,0,3,10l.24.26.24.25.23.25.24.25.24.25a2.73,2.73,0,0,0,.23.25l.24.25.24.25c.07.09.15.17.23.26l.24.25.24.25.23.25.24.25.24.25.23.25.24.25.24.26.24.25.23.25.24.25.24.25a2.73,2.73,0,0,0,.23.25l.24.25.24.25c.07.09.15.17.23.26l.24.25.24.25.23.25.24.25.24.25.24.25a2.73,2.73,0,0,0,.23.25l.24.26.24.25.23.25.24.25.24.25a2.73,2.73,0,0,0,.23.25l.24.25.24.25c.07.09.15.17.23.26l.24.25.24.25.23.25.24.25.24.25.24.25a2.73,2.73,0,0,0,.23.25l.24.26.24.25a11.62,11.62,0,0,0,5.52,3.43,11.32,11.32,0,0,0,13.75-7.19,26.58,26.58,0,0,0,1.07-4q3.89-18.92,7.72-37.83l4.35-21.19c.15,1.78.31,3.57.57,5.37,1.08,7.7,3.31,15,7.61,21.62a33.16,33.16,0,0,0,4.5,5.55l.24.26.23.25c.09.08.16.17.24.25l.24.25c.08.08.15.17.24.25l.23.25.24.25c.08.08.15.17.24.25s.15.18.23.26l.24.25c.08.08.15.17.24.25l.23.25.24.25.24.25.23.25.24.25.24.26.23.25c.09.08.16.17.24.25l.24.25c.08.08.15.17.24.25l.23.25.24.25a2.83,2.83,0,0,0,.24.25c.08.09.15.18.23.26l.24.25c.08.08.15.17.24.25l.23.25.24.25.24.25.23.25.24.25.24.26c.08.08.15.17.24.25l.23.25.24.25.23.25c.09.08.16.17.24.25l.24.25a2.83,2.83,0,0,0,.24.25c.08.09.15.18.23.26l.24.25c.08.08.15.17.24.25l.23.25.24.25.24.25.23.25.24.25.24.26.23.25a26.67,26.67,0,0,0,10.19,6.48c8.25,2.89,16,1.36,23.44-2.77A49.94,49.94,0,0,0,282,454.13a95.39,95.39,0,0,0,15.36-25.71c.35-.85.65-1.72,1-2.58a11.53,11.53,0,0,0,3,8.17c.07.09.16.17.23.25l.24.25.24.25c.07.09.16.17.23.25l.24.26.24.25.24.25a2.73,2.73,0,0,0,.23.25l.24.25a2.83,2.83,0,0,0,.24.25,2.73,2.73,0,0,0,.23.25l.24.25.24.26c.07.08.16.16.23.25l.24.25.24.25c.07.09.16.17.23.25l.24.25.24.25c.07.09.16.17.23.25l.24.26.24.25c.07.09.16.16.24.25a2.73,2.73,0,0,0,.23.25l.24.25.24.25a2.73,2.73,0,0,0,.23.25l.24.25.24.26c.07.08.16.16.23.25l.24.25.24.25c.07.09.16.17.23.25l.24.25.24.25c.07.09.16.17.23.25l.24.26.24.25c.07.09.16.16.24.25a2.73,2.73,0,0,0,.23.25l.24.25a2.83,2.83,0,0,0,.24.25,2.73,2.73,0,0,0,.23.25l.24.25.24.26c.07.08.16.16.23.25l.24.25.24.25c.07.09.16.17.23.25l.24.25a11.4,11.4,0,0,0,7.59,3.89,11.67,11.67,0,0,0,11.94-7.15c1.68-3.63,3-7.42,4.38-11.19,5.28-14.74,9.77-29.75,15-44.49-1.19,6.56-2.24,13.16-3.06,19.8a43.31,43.31,0,0,0-.47,8.5,10.73,10.73,0,0,0,2.52,6.38l.24.25a2.83,2.83,0,0,0,.24.25c.07.09.16.17.23.25s.17.17.24.26.16.16.24.25.16.16.24.25.16.16.23.25.16.16.24.25a2.83,2.83,0,0,0,.24.25c.07.09.16.17.23.25a2.83,2.83,0,0,0,.24.25c.07.09.16.17.24.26s.16.16.23.25.17.16.24.25.16.16.24.25.16.16.23.25.17.16.24.25a2.83,2.83,0,0,0,.24.25c.07.09.16.17.23.25s.17.17.24.26.16.16.24.25.16.16.24.25.16.16.23.25.16.16.24.25.16.16.24.25.16.17.23.25a2.83,2.83,0,0,0,.24.25c.07.09.16.17.24.26s.16.16.23.25.17.16.24.25.16.16.24.25.16.16.23.25l.24.25a2.83,2.83,0,0,0,.24.25c.07.09.16.17.23.25s.17.17.24.26.16.16.24.25.16.16.24.25.16.16.23.25.16.16.24.25.16.16.24.25.16.17.23.25a2.83,2.83,0,0,0,.24.25c.07.09.16.17.24.26s.16.16.23.25.17.16.24.25.16.16.24.25.16.16.23.25l.24.25a2.83,2.83,0,0,0,.24.25,11.56,11.56,0,0,0,5.5,3.63,10.52,10.52,0,0,0,11.81-3.15,17.51,17.51,0,0,0,3.24-6.05c2.44-7.3,4.62-14.69,6.93-22,2.52-8,5-16,7.51-23.95a56.08,56.08,0,0,0,.23,6.07c.55,5.63,1.71,11.05,5,15.82a27.54,27.54,0,0,0,2.5,3.12l.24.25c.07.09.16.17.23.25l.24.25.24.26a2.73,2.73,0,0,1,.23.25l.24.25.24.25.24.25a2.73,2.73,0,0,0,.23.25l.24.25.24.25c.07.09.15.17.23.26l.24.25.24.25.23.25.24.25.24.25c.07.09.16.17.23.25l.24.25.24.26a2.73,2.73,0,0,1,.23.25l.24.25.24.25.24.25a2.73,2.73,0,0,0,.23.25l.24.25.24.25c.07.09.15.17.23.26l.24.25.24.25c.07.09.16.17.23.25l.24.25.24.25c.07.09.16.17.23.25l.24.26.24.25a2.73,2.73,0,0,1,.23.25l.24.25.24.25.24.25a2.73,2.73,0,0,0,.23.25l.24.25.24.26.23.25.24.25.24.25c.07.09.16.17.23.25l.24.25.24.25c.07.09.16.17.23.25a19.32,19.32,0,0,0,9.36,5.9c6.4,1.77,12.09,0,17.38-3.56,4.45-3,7.79-7.08,10.82-11.43,1-1.44,2-2.94,3.07-4.53l.2.21c.08.08.15.17.24.25l.23.25.24.25c.08.08.15.17.24.25s.15.18.23.26.16.17.24.25.15.17.24.25l.23.25.24.25.24.25.23.25.24.25c.08.08.16.18.24.25s.15.18.23.26.16.17.24.25l.24.25c.08.08.15.17.24.25l.23.25.24.25c.08.08.15.17.24.25s.15.18.23.25l.24.26c.08.08.15.17.24.25l.23.25.24.25.24.25.23.25.24.25c5.42,5.4,12.34,8.27,20.48,9,11.94,1,22.19-3.06,31.05-10.88a64.9,64.9,0,0,0,11.86-14q.25.75.57,1.5a11.62,11.62,0,0,0,2.69,3.93l.24.25c.08.08.15.17.24.25l.23.25a2.89,2.89,0,0,0,.24.25,3,3,0,0,0,.24.26l.23.25.24.25c.08.08.15.17.24.25l.23.25.24.25.24.25a2.84,2.84,0,0,0,.23.25l.24.26.24.25c.08.08.15.17.24.25l.23.25.24.25c.08.08.15.17.24.25l.23.25a2.89,2.89,0,0,0,.24.25,3,3,0,0,0,.24.26l.23.25.24.25c.08.08.15.17.24.25l.23.25.24.25.24.25a2.84,2.84,0,0,0,.23.25l.24.26.24.25c.08.08.15.17.24.25l.23.25.24.25c.08.08.15.17.24.25l.23.25a2.89,2.89,0,0,0,.24.25,3,3,0,0,0,.24.26l.23.25.24.25c.08.08.15.17.24.25l.23.25.24.25.24.25a2.84,2.84,0,0,0,.23.25l.24.26.24.25c.08.08.15.17.24.25l.23.25.24.25c.08.08.15.17.24.25a11.27,11.27,0,0,0,17.17-1.3,21.67,21.67,0,0,0,2.56-4.71c1.71-4.2,3.4-8.41,4.89-12.69,3.56-10.26,7-20.58,10.52-30.84.72-2.1,1.49-4.17,2.25-6.25-1.69,7.2-2.74,14.52-1.93,22,.76,7,3,13.38,8.19,18.39h0c.08.08.14.16.23.24h0c.08.08.15.17.23.24h0l.23.25h0l.23.25h0c.09.08.15.17.23.25h0c.08.07.15.16.23.24h0l.23.24h0l.22.24h0l.23.24h0c.08.08.15.17.23.24h0c.08.08.14.17.23.25h0l.23.25h0l.23.25h0c.08.07.14.16.23.24h0l.23.24h0l.23.24h0a2.61,2.61,0,0,0,.23.24h0c.09.08.15.17.23.25h0l.23.25h0l.23.25h0c.09.08.15.17.23.25h0c.08.07.15.16.23.24h0l.23.24h0l.22.24h0l.23.24h0l.23.25h0c.08.08.14.17.23.25h0l.23.25h0l.23.25h0c.08.07.14.16.23.24h0l.23.24h0l.23.24h0a2.61,2.61,0,0,0,.23.24h0c.09.08.15.17.23.24h0l.23.25h0l.23.25h0c.09.08.15.17.23.25h0l.23.25h0l.23.24h0l.22.24h0c.08.08.15.17.23.24h0c.08.08.15.17.23.24h0c.08.08.14.17.23.25h0l.23.25h0l.23.25h0c.08.07.14.16.23.24h0l.23.24h0l.23.24h0a2.61,2.61,0,0,0,.23.24h0c.08.08.15.17.23.24h0l.23.25a18.88,18.88,0,0,0,17.17,5.19c5.89-1,10.59-4.24,14.51-8.47,3.14-3.38,5.81-7.2,8.66-10.86l.12.12.23.25.24.25.24.25c.07.09.16.17.23.25l.24.26.24.25c.07.08.16.16.23.25l.24.25.24.25a2.83,2.83,0,0,0,.24.25,2.73,2.73,0,0,0,.23.25l.24.25.24.26c.07.08.16.16.23.25l.24.25.24.25.23.25.24.25.24.25c.07.09.16.17.23.25l.24.26.24.25.24.25.23.25.24.25a2.83,2.83,0,0,0,.24.25,2.73,2.73,0,0,0,.23.25l.24.25c.07.09.16.17.24.26s.16.16.23.25l.24.25.24.25c.07.09.16.17.23.25l.24.25.24.25c.07.09.16.17.23.25l.24.26a24.68,24.68,0,0,0,21.86,8.25,27.17,27.17,0,0,0,13.19-5.72A61.05,61.05,0,0,0,694.8,400l.28-.32.17.17.24.25.23.25.24.25.24.26.24.25.23.25.24.25c.08.08.15.17.24.25l.23.25.24.25a2.83,2.83,0,0,0,.24.25l.23.26.24.25.24.25.23.25.24.25.24.25.23.25.24.25.24.26.23.25c.09.08.16.17.24.25l.24.25c.08.08.15.17.24.25l.23.25.24.25a2.83,2.83,0,0,0,.24.25l.23.26.24.25.24.25.23.25.24.25.24.25.23.25.24.25.24.26a37.48,37.48,0,0,0,3.42,3.1,27.87,27.87,0,0,0,20.7,6c6.49-.64,12.16-3.32,17.39-7a69.56,69.56,0,0,0,16.85-17.46,121,121,0,0,0,17.37-38.79,4.41,4.41,0,0,1,3.11-3.48,58.42,58.42,0,0,0,16.06-8.74,83.75,83.75,0,0,0,27.54-36,112.22,112.22,0,0,0,6.16-20.91,71.85,71.85,0,0,0,1.68-11.88,11.66,11.66,0,0,0-3.21-8.28M559.73,292.69l-.21-.24a17.46,17.46,0,0,0-7-4.14c5.35-.67,10.7-1.31,16-2.07,7.46-1.05,14.94-1.87,22.43-2.52a26,26,0,0,0-12.48,5.46,52,52,0,0,0-10.34,11.06c-.19.26-.39.51-.59.77h0l0,0c-.08-.08-.14-.16-.22-.23a0,0,0,0,0,0,0l-.21-.24h0c-.08-.08-.14-.17-.22-.24l0,0c-.08-.07-.14-.16-.22-.23l0,0-.21-.23,0,0c-.08-.07-.14-.16-.22-.23l0,0c-.08-.07-.14-.16-.22-.23l0,0-.21-.23,0,0c-.07-.08-.13-.16-.21-.24h0l-.22-.24h0l-.21-.24,0,0-.21-.23s0,0,0,0-.14-.16-.22-.23l0,0c-.08-.07-.14-.16-.22-.23l0,0-.21-.23,0,0c-.08-.08-.14-.16-.22-.23s0,0,0,0l-.22-.24h0l-.21-.24,0,0c-.08-.07-.14-.16-.22-.23s0,0,0,0-.14-.16-.22-.23,0,0,0,0l-.21-.23,0,0c-.08-.07-.14-.16-.22-.23l0,0c-.08-.07-.14-.16-.22-.23s0,0,0,0l-.21-.23,0,0c-.07-.08-.13-.16-.21-.24h0c-.08-.08-.14-.17-.22-.24l0,0-.21-.23,0,0-.21-.23,0,0c-.08-.07-.14-.16-.22-.23l0,0c-.08-.07-.14-.16-.22-.23l0,0-.21-.23,0,0c-.08-.08-.14-.16-.22-.23l0,0-.22-.24h0M245.46,428.26a98.87,98.87,0,0,1,14.89-59.11c.22-.36.47-.69.69-1a19.34,19.34,0,0,0,4.63,12.67l.24.25.23.25.24.25.24.25c.07.09.16.17.23.25l.24.25.24.25c.07.09.16.17.23.25l.24.26.24.25c.07.09.16.16.23.25l.24.25.24.25a2.83,2.83,0,0,0,.24.25,2.73,2.73,0,0,0,.23.25l.24.25.24.26.23.25.24.25.06.08c-.44,2-.87,4.17-1.41,6.3a93.51,93.51,0,0,1-12.17,28.67A41.69,41.69,0,0,1,247.49,431c-.57.43-1.1.8-1.61,1.13-.19-1.28-.34-2.57-.42-3.86M748.69,316.87a17.92,17.92,0,0,1-.53,2.32,30,30,0,0,1-10.84-2.41,10.24,10.24,0,0,1-.11-1.22A21.52,21.52,0,0,1,746,297a11.06,11.06,0,0,1,1.81-1.1,74.79,74.79,0,0,1,.87,21M716.6,374.5a157.34,157.34,0,0,1,7.65-29.67c.26-.69.54-1.37.85-2,.18-.38.44-.71.88-1.43a52.15,52.15,0,0,0,14.2,9.39,84.07,84.07,0,0,1-11.48,20,41.73,41.73,0,0,1-10.16,9.45,15.6,15.6,0,0,1-2.4,1.27,35.16,35.16,0,0,1,.46-7m-232,11.16a15.91,15.91,0,0,1-7.42,2,15.69,15.69,0,0,1,0-2.82c.94-.21,1.65-.36,2.36-.53A50.87,50.87,0,0,0,492,379.61a30,30,0,0,1-7.39,6.05m217.88-77.31c.2,1,.38,2,.59,3.1a9.87,9.87,0,0,1-1.34.52c-5.58,1.26-9.59,4.23-11.06,10a8.85,8.85,0,0,1-.59,1.47c-5.19,11-10.15,22-15.68,32.84a168.9,168.9,0,0,1-10.57,17.26c.35-2.21.76-4.42,1.16-6.62,2.08-11.57,5.86-22.66,9.52-33.78,5.69-17.25,13.21-33.78,20.08-50.57.07-.17.27-.3.37-.4a3.14,3.14,0,0,1,.68-.15c3.58.1,7.16.26,10.74.31a42.31,42.31,0,0,0-3.9,26m-78.14-26.43c9.43-.23,18.86-.33,28.29-.42-4.78,11.51-9.51,23.05-13.24,35a27.07,27.07,0,0,1-1.22,3.59c-2,4.28-4.14,8.53-6.25,12.77q-5.15,10.34-10.31,20.67c1.76-7,3.65-14,5.08-21a42,42,0,0,0-.8-21,22.84,22.84,0,0,0-5.59-9.48l-.24-.25-.24-.25c-.08-.08-.15-.17-.24-.25l-.23-.25-.24-.25c-.08-.08-.15-.17-.24-.25l-.23-.26-.24-.25c-.08-.08-.15-.17-.24-.25l-.23-.25-.24-.25-.24-.25-.23-.25-.24-.25-.24-.25c-.08-.09-.15-.18-.23-.26l-.24-.25-.24-.25-.23-.25c-.09-.08-.16-.17-.24-.25l-.24-.25c-.08-.08-.15-.17-.24-.25a2.84,2.84,0,0,0-.23-.25l-.24-.26c-.08-.08-.15-.17-.24-.25l-.23-.25-.24-.25-.24-.25-.23-.25-.24-.25-.24-.26-.23-.25-.24-.25-.24-.25-.23-.25c-.09-.08-.16-.17-.24-.25l-.24-.25c-.08-.08-.15-.17-.24-.25s-.15-.18-.23-.26l-.24-.25c-.08-.08-.15-.17-.24-.25l-.23-.25-.24-.25-.24-.25-.23-.25-.24-.25-.24-.26L609,290l-.24-.25-.24-.25a19.85,19.85,0,0,0-15.26-5.91c10.36-.85,20.75-1.36,31.15-1.62"></path><path class="cls-2" d="M462.76,369.49a19.71,19.71,0,0,0,1.22,8.65c1.58,4.68,4.5,6.84,9.43,7a16.21,16.21,0,0,0,8.83-2.06,30.54,30.54,0,0,0,9.15-8.16,52.78,52.78,0,0,0,8.44-15.14c3.78-11.19,7.32-22.46,11.18-33.62,2.31-6.67,4.85-13.28,7.61-19.77a40.3,40.3,0,0,1,10.06-14.07,27.91,27.91,0,0,1,11.43-6.54c6.43-1.77,12.21-.45,17,4.1,2.1,2,3.62,4.62,5.32,7a23.29,23.29,0,0,1,1.51,3.11c.71-.91,1.29-1.6,1.82-2.33a52.76,52.76,0,0,1,10.34-11.07A25.77,25.77,0,0,1,589.67,281c10.29-.84,18.63,5,21.77,15.1a42,42,0,0,1,.81,21c-1.79,8.78-4.29,17.4-6.34,26.12-2.34,9.95-4.56,19.94-6.76,29.92a16.26,16.26,0,0,0-.34,4.4A3.2,3.2,0,0,0,599.9,380a3,3,0,0,0,2.51-.61,17.6,17.6,0,0,0,3.48-3.63,74.52,74.52,0,0,0,5-8.08c6.3-12.41,12.48-24.89,18.69-37.35,2.12-4.24,4.22-8.49,6.25-12.77a27.07,27.07,0,0,0,1.22-3.59c4.61-14.72,10.75-28.86,16.61-43.1.59-1.43,1.14-2.87,1.88-4.74-1.37,0-2.28-.1-3.19-.09-14.14.17-28.29.21-42.42.57a483,483,0,0,0-55.83,4.32c-7.09,1-14.23,1.78-21.33,2.74a48.21,48.21,0,0,0-5.55,1.22,14.82,14.82,0,0,1-7.48.4,11.35,11.35,0,0,1-8.87-9.92,11.14,11.14,0,0,1,7-11.64,38.73,38.73,0,0,1,8.49-2.39c9.07-1.35,18.19-2.43,27.28-3.65a477.46,477.46,0,0,1,56.79-4.16c17.09-.26,34.19-.3,51.28-.42,3.62,0,3.2.55,4.82-3.14A53.51,53.51,0,0,1,670.4,232a10.67,10.67,0,0,1,11.23-4.87,10.48,10.48,0,0,1,9,7.87,19.81,19.81,0,0,1,.31,5.62,17.19,17.19,0,0,1-.67,3.14,35.7,35.7,0,0,1,3.77.29,26.26,26.26,0,0,1,6.09,1.44,11,11,0,0,1,6.24,11.44,11.11,11.11,0,0,1-8.43,9.59,20.53,20.53,0,0,1-5,.49c-3.91,0-7.81-.22-11.71-.34a3.31,3.31,0,0,0-.69.16c-.09.1-.29.22-.37.4-6.87,16.78-14.38,33.31-20.07,50.56-3.67,11.12-7.45,22.22-9.53,33.78-1.19,6.65-2.64,13.29-1.54,20.1a26.59,26.59,0,0,0,1.36,5.51c.85,2.22,2.39,2.68,4.2,1.13a34.63,34.63,0,0,0,6.39-6.53,178.68,178.68,0,0,0,11.09-18c5.52-10.8,10.48-21.88,15.67-32.84a8.36,8.36,0,0,0,.59-1.47c1.48-5.8,5.49-8.77,11.07-10a10.36,10.36,0,0,0,1.33-.52l-.58-3.1c-3.61-19,8.37-40.68,26.3-47.52,11.91-4.55,23.52-1.52,31.64,8.3,6,7.29,9.18,15.85,10.5,25.08.68,4.69.85,9.45,1.25,14.18.06.82.13,1.65.24,3,1.28-1,2.28-1.68,3.2-2.47,10-8.58,16.35-19.48,19.9-32.07.77-2.74,1.5-5.5,2-8.3a14.14,14.14,0,0,0,.11-5c-1.32-7.36,3.48-13.68,11.28-14.62a11.78,11.78,0,0,1,13,11.93,70.81,70.81,0,0,1-1.68,11.88,111.47,111.47,0,0,1-6.16,20.91,83.89,83.89,0,0,1-27.53,36,58.83,58.83,0,0,1-16.06,8.74,4.36,4.36,0,0,0-3.11,3.47,121.47,121.47,0,0,1-17.37,38.79,69.91,69.91,0,0,1-16.85,17.46c-5.23,3.72-10.91,6.41-17.4,7a27.81,27.81,0,0,1-20.69-6.05A35.92,35.92,0,0,1,682,382.69c-.68.76-1.24,1.31-1.71,1.93A61.33,61.33,0,0,1,669,396.46a27.08,27.08,0,0,1-13.18,5.72c-12.59,1.56-21.76-6-25.8-14-1-2-1.76-4.19-2.77-6.63-.78,1.08-1.35,1.93-2,2.73-2.93,3.73-5.65,7.66-8.86,11.12-3.93,4.22-8.63,7.44-14.52,8.46a18.85,18.85,0,0,1-17.17-5.19c-5.21-5-7.42-11.36-8.18-18.39-.89-8.12.41-16,2.36-23.82,3.48-13.91,7.27-27.75,10.9-41.62a42.51,42.51,0,0,0,1.32-6.18c.11-1-.17-2.62-.86-3.09s-2.2,0-3.14.49a7.24,7.24,0,0,0-2.54,2.32,108.46,108.46,0,0,0-6.1,9.59,231.89,231.89,0,0,0-14.35,33.74c-3.55,10.27-7,20.58-10.52,30.84-1.49,4.28-3.17,8.5-4.89,12.69a21,21,0,0,1-2.56,4.71,11.3,11.3,0,0,1-19.63-2.37,15.66,15.66,0,0,1-1-10.5c3.23-12,6.37-24.05,9.52-36.08q4.53-17.28,9-34.58c.26-1,.46-2.06.66-3.1a2.61,2.61,0,0,0-1.18-3.07c-1.6.06-2.3,1.29-2.87,2.52a59.79,59.79,0,0,0-2.7,6.4c-3.83,11.5-7.51,23.06-11.4,34.54-2.1,6.19-4.28,12.37-6.84,18.38A69.09,69.09,0,0,1,502,397.23c-8.87,7.83-19.12,11.92-31.06,10.89-10.71-.93-19.34-5.58-25.17-14.87-.43-.69-.93-1.34-1.55-2.21-1.32,1.94-2.46,3.69-3.65,5.4-3,4.35-6.37,8.43-10.83,11.43-5.29,3.57-11,5.32-17.38,3.56-5-1.39-8.72-4.56-11.61-8.78-3.28-4.76-4.44-10.18-5-15.81-.65-6.68.16-13.28.84-19.9a246.25,246.25,0,0,1,6-32.33,29.59,29.59,0,0,0,.7-5.64,2.54,2.54,0,0,0-.9-2.06,2.51,2.51,0,0,0-2.25.49,15.64,15.64,0,0,0-3.25,4.22c-2.66,6-5.45,11.91-7.52,18.09-4.69,14-9,28.12-13.42,42.2-2.32,7.34-4.5,14.73-6.93,22a17.66,17.66,0,0,1-3.25,6,10.5,10.5,0,0,1-11.8,3.16c-4.65-1.54-7.43-4.87-7.8-9.76a44.09,44.09,0,0,1,.47-8.5c2.39-19.41,6.67-38.44,11.26-57.42,1-4.3,1.76-8.67,2.58-13a9.71,9.71,0,0,0,.19-2.52c-.12-1.59-1.34-2.26-2.64-1.3a11.21,11.21,0,0,0-2.73,3,151.4,151.4,0,0,0-11.73,23.1c-8.13,19.62-13.83,40.07-21,60-1.35,3.77-2.7,7.56-4.37,11.19a11.69,11.69,0,0,1-11.95,7.15,11.41,11.41,0,0,1-10.37-11.91,86.57,86.57,0,0,1,1.14-9.73c1.72-12,3.48-24,5.21-36a20.08,20.08,0,0,0,.08-2.29c-3.39,2-6.74,4-10,6.08a3.76,3.76,0,0,0-1.12,2.38,135.29,135.29,0,0,1-8.41,29.46,95.29,95.29,0,0,1-15.36,25.71A49.79,49.79,0,0,1,254,450.18c-7.41,4.12-15.18,5.65-23.44,2.76a28.32,28.32,0,0,1-14.45-11.78c-4.3-6.58-6.53-13.92-7.61-21.62-2.51-17.83.08-35.14,5.6-52.1a104.62,104.62,0,0,1,15.67-30.92c4.61-6.13,9.87-11.57,16.69-15.27,7.13-3.87,14.58-5.46,22.56-2.88a27.69,27.69,0,0,1,13.79,10.15c4.35,5.77,6.71,12.38,8.22,19.36.24,1.12.47,2.25.85,4,1.05-1.31,1.85-2.22,2.57-3.19,5.63-7.69,10-16.12,14.33-24.58,1.54-3,3-6.06,4.65-9a12.1,12.1,0,0,1,8.92-6.44,11.6,11.6,0,0,1,13.27,9.44c.24,1.24.34,2.49.57,4.29.83-1,1.42-1.59,1.94-2.27a49.28,49.28,0,0,1,11.65-11.54,34.21,34.21,0,0,1,8.13-4.13c7.78-2.52,15.37.29,19.88,7.13,1.27,1.92,2.19,4.08,3.47,6.52.65-.86,1.26-1.63,1.82-2.44a73,73,0,0,1,11.31-13.18,28.13,28.13,0,0,1,9-5.78c8.29-3.07,16.29,0,20.37,7.83A30.89,30.89,0,0,1,427,318.93c0,8.07-1.4,16-2.85,23.86-1.58,8.6-3,17.24-4.44,25.88-.73,4.46-1.34,8.95-2,13.43a9.25,9.25,0,0,0-.13,2.51c.33,2.36,2.3,3.1,4.15,1.56a10.45,10.45,0,0,0,1.61-1.94C428,378,431,370.89,433.75,363.71c2.43-6.29,4.45-12.74,6.54-19.16,2.55-7.81,4.84-15.72,7.5-23.49a54.52,54.52,0,0,1,14.57-22.3,30.41,30.41,0,0,1,19.85-8.7c8.88-.45,15.46,3.54,20,11,4.17,6.93,4.83,14.56,3.54,22.36a58.73,58.73,0,0,1-16.84,32.31A48.66,48.66,0,0,1,465.13,369c-.71.17-1.42.31-2.37.52M268,350.31c-.62-1.72-1.09-3.33-1.77-4.84-2.68-5.87-5.3-6.53-10.48-2.72a38.7,38.7,0,0,0-9.84,11A99,99,0,0,0,231,412.89a37.84,37.84,0,0,0,2.84,12.6c2.77,6.51,5.65,7.27,11.27,2.95a41.36,41.36,0,0,0,9.16-10.4,93.62,93.62,0,0,0,12.18-28.66c.61-2.43,1.09-4.89,1.59-7.18-1.37-1.08-2.47-1.9-3.52-2.78-7.91-6.63-8.85-24.08,3.46-29.11M740.7,339.54A51.54,51.54,0,0,1,711.5,326a15.2,15.2,0,0,0-.88,1.42c-.31.67-.6,1.35-.85,2.05a156.51,156.51,0,0,0-7.66,29.66c-.72,4.75-.85,9.52,1.08,14,3,7,7.33,8.12,12.95,4.52a41.86,41.86,0,0,0,10.15-9.45c6.42-8.13,10.78-17.35,14.16-27.07a11.44,11.44,0,0,0,.25-1.62m5-22.9a16.4,16.4,0,0,0,.53-2.32,73.21,73.21,0,0,0-1.12-22.3,25.4,25.4,0,0,0-4.55-10.31c-1.87-2.41-3.55-2.85-6.35-1.67a12.51,12.51,0,0,0-2.74,1.54,21.53,21.53,0,0,0-8.8,18.62,9.33,9.33,0,0,0,1.26,4.49c5,7.91,12.44,11.53,21.77,11.95m-280.5,27.6c11.22-4.24,20.67-23.4,16.93-31.05a18.2,18.2,0,0,0-3.17,1.73,28.85,28.85,0,0,0-8.9,12.43c-1.59,4.45-2.93,9-4.32,13.5a25.45,25.45,0,0,0-.54,3.39"></path><path class="cls-2" d="M142.87,338.91c.61-.81,1.26-1.6,1.85-2.44l57.05-80.64a37.59,37.59,0,0,1,2.29-3,11.46,11.46,0,0,1,13.76-3.13,11.6,11.6,0,0,1,6.4,12.89c-1.65,8.49-3.41,17-5.14,25.44q-6.89,33.63-13.78,67.27t-13.78,67.28q-3.87,18.92-7.73,37.82a25.85,25.85,0,0,1-1.07,4A11.32,11.32,0,0,1,169,471.52a11.47,11.47,0,0,1-8.25-13.2c1.42-7.57,3-15.1,4.58-22.65q6.81-33.33,13.61-66.66,5.35-26.2,10.71-52.4a6.68,6.68,0,0,0,0-3.41c-.68.88-1.4,1.75-2.05,2.66q-22.22,31.41-44.43,62.82a32.82,32.82,0,0,1-2.69,3.5c-3.33,3.56-7.44,4.82-12.1,3.36s-7.28-4.9-7.94-9.71c-.29-2.19-.32-4.42-.39-6.64q-.44-13.6-.84-27.21a3.19,3.19,0,0,0-.71-2c-.48,1.16-1,2.32-1.43,3.5q-27.54,73-55.08,146a33.11,33.11,0,0,1-2.14,4.92,11.37,11.37,0,0,1-14.23,5,11.49,11.49,0,0,1-6.7-13.52,53,53,0,0,1,1.94-5.69q36.68-97.26,73.39-194.51a26.86,26.86,0,0,1,1.48-3.49c2.47-4.47,6.2-6.82,11.4-6.42a27.93,27.93,0,0,1,5.3.88c4.84,1.35,8.05,5.77,8.29,11.52.31,7.28.47,14.56.68,21.84q.36,12.5.71,25c0,1.26.16,2.52.25,3.77l.55.25"></path><path d="M564.89,175.73l-.21-.18-.21-.17-.21-.17-.21-.18-.21-.17-.21-.17-.21-.18-.21-.17c-.08-.06-.14-.12-.22-.17l-.21-.18-.21-.17-.21-.17-.21-.18-.21-.17-.21-.17-.21-.18c-.08-.06-.14-.12-.22-.17l-.21-.18-.21-.17-.21-.17-.21-.18-.21-.17-.21-.17-.21-.18-.22-.17a1.73,1.73,0,0,0-.21-.17l-.21-.18-.21-.17-.21-.17-.21-.18-.21-.17-.21-.17-.21-.18-.22-.17-.21-.18-.21-.17-.21-.17-.21-.17-.21-.18-.21-.17-.21-.18c-.08-.05-.14-.11-.22-.17a1.73,1.73,0,0,0-.21-.17l-.21-.18-.21-.17-.21-.17-.21-.18-.21-.17-.21-.17-.22-.18a11.91,11.91,0,0,0-8.71-2.68,11.34,11.34,0,0,0-10.3,12.46,11.52,11.52,0,0,0,4.38,7.86l.21.18.21.17.22.18.21.17.21.17.21.18.21.17.21.17.21.18.21.17.21.17.22.18.21.17.21.17.21.18.21.17.21.18.21.17.21.17.22.18.21.17.21.17.21.18.21.17.21.17.21.18.21.17.21.17.22.18.21.17.21.17.21.18.21.17.21.17.21.18.21.17c.08.06.14.12.22.17l.21.18.21.17.21.18.21.17.21.17.21.18.21.17a1.84,1.84,0,0,0,.22.17l.21.18.21.17.21.17.21.18.21.17A11.79,11.79,0,0,0,559,196a11.34,11.34,0,0,0,10.3-12.46,11.48,11.48,0,0,0-4.38-7.84"></path><path class="cls-6" d="M546.37,186.06a11.75,11.75,0,0,1-12.88-10.35,11.34,11.34,0,0,1,10.3-12.46,11.78,11.78,0,0,1,12.88,10.35,11.33,11.33,0,0,1-10.3,12.46"></path><path class="cls-4" d="M546.37,186.06a11.75,11.75,0,0,1-12.88-10.35,11.34,11.34,0,0,1,10.3-12.46,11.78,11.78,0,0,1,12.88,10.35A11.33,11.33,0,0,1,546.37,186.06Z"></path><path d="M259.21,218a1.73,1.73,0,0,0-.21-.17l-.21-.18-.21-.17-.21-.17-.21-.18-.21-.17-.21-.17-.21-.18-.22-.17-.21-.17-.21-.18-.21-.17-.21-.17-.21-.18-.21-.17-.21-.18c-.08,0-.14-.11-.22-.17l-.21-.17-.21-.18-.21-.17-.21-.17-.21-.18-.21-.17-.21-.17-.22-.18-.21-.17-.21-.17-.21-.18-.21-.17-.21-.17-.21-.18-.21-.17-.21-.18c-.08-.05-.14-.11-.22-.17l-.21-.17-.21-.18-.21-.17-.21-.17-.21-.18-.21-.17-.21-.17-.22-.18-.21-.17-.21-.17-.21-.18-.21-.17-.21-.17-.21-.18-.21-.17a1.84,1.84,0,0,0-.22-.17,11.43,11.43,0,0,0-8.53-2.6,11.86,11.86,0,0,0-10.55,12.76,11.38,11.38,0,0,0,4.3,7.78l.21.17.21.18.21.17.21.17.21.18.21.17.21.17.22.18.21.17.21.17.21.18.21.17.21.18.21.17.21.17.22.18.21.17.21.17.21.18.21.17.21.17.21.18.21.17a1.84,1.84,0,0,0,.22.17l.21.18.21.17.21.17.21.18.21.17.21.17.21.18.21.17.22.18.21.17.21.17.21.18.21.17.21.17.21.18.21.17a1.84,1.84,0,0,0,.22.17l.21.18.21.17.21.17.21.18.21.17.21.17.21.18.21.17.22.18a11.34,11.34,0,0,0,8.52,2.59,11.89,11.89,0,0,0,10.54-12.77,11.29,11.29,0,0,0-4.28-7.77"></path><path class="cls-6" d="M250.9,215.78a11.89,11.89,0,0,1-10.55,12.77,11.47,11.47,0,0,1-12.6-10.2,11.85,11.85,0,0,1,10.55-12.76,11.44,11.44,0,0,1,12.6,10.19"></path><path class="cls-4" d="M250.9,215.78a11.89,11.89,0,0,1-10.55,12.77,11.47,11.47,0,0,1-12.6-10.2,11.85,11.85,0,0,1,10.55-12.76A11.44,11.44,0,0,1,250.9,215.78Z"></path><path d="M516.54,155.05a16.37,16.37,0,0,0-1.36-4.52,11.47,11.47,0,0,0-3.44-4.36l-.16-.14-.17-.14-.17-.13-.17-.14-.17-.14-.17-.14-.16-.14-.17-.14-.17-.13-.17-.14-.17-.14-.17-.14-.16-.14-.17-.14-.17-.13-.17-.14-.17-.14-.17-.14-.16-.14-.17-.13-.17-.14-.17-.14-.17-.14-.17-.14-.16-.14-.17-.13-.17-.14-.17-.14-.17-.14-.17-.14-.16-.14-.17-.13-.17-.14-.17-.14-.17-.14-.16-.14-.17-.14-.17-.13-.17-.14-.17-.14-.17-.14-.16-.14-.17-.14-.17-.13-.17-.14-.17-.14-.17-.14-.16-.14-.17-.13-.17-.14a11.19,11.19,0,0,0-8.6-2.34,11.06,11.06,0,0,0-9.64,9.87,29.22,29.22,0,0,0,.26,6.6c1.14,9.22,2.38,18.43,1.9,27.76-.52,10.14-2.69,19.85-7.89,28.7-4.12,7-9.57,12.72-17.13,15.88-6.74,2.82-11.83,2.94-16.2,1-5.17-6.18-8.19-13.39-10.16-21.16a3.12,3.12,0,0,1,.94-3.11c2-2.28,4.07-4.58,5.87-7A189.45,189.45,0,0,0,473,132.13c3.32-12.56,4.67-25.31,2.13-38.22-1.22-6.21-3.41-12-7.8-16.7-.56-.59-1.14-1.14-1.73-1.66l-.17-.14-.16-.14-.17-.14-.17-.13-.17-.14-.17-.14-.16-.14-.17-.14-.17-.14-.17-.13-.17-.14-.17-.14-.16-.14-.17-.14-.17-.14-.17-.13-.17-.14-.17-.14-.16-.14-.17-.14-.17-.13-.17-.14-.17-.14-.17-.14-.17-.14-.16-.14-.17-.13-.17-.14-.17-.14-.17-.14-.17-.14-.16-.14-.17-.13-.17-.14-.17-.14-.17-.14-.16-.14-.17-.14-.17-.13-.17-.14-.17-.14-.17-.14-.16-.14-.17-.14a1.09,1.09,0,0,1-.17-.13l-.17-.14-.17-.14-.17-.14-.16-.14-.17-.13c-8-7.19-19.11-7.35-27.32,0A47.26,47.26,0,0,0,423,76.87c-4.3,6.21-7,13.22-9.4,20.33-8.36,24.64-11.55,50.08-11.76,76a12.18,12.18,0,0,1-.4,3.73c-1.88,5.59-4,11.11-5.84,16.71a119.47,119.47,0,0,1-10.28,23.43,75.35,75.35,0,0,1-23,24.9c-6.88,4.6-14.37,7.52-22.75,7.79a25.37,25.37,0,0,1-11.44-2.16,27.13,27.13,0,0,1-3.4-6.2,30.51,30.51,0,0,1-2.19-11.13c0-12.83,4.84-23,16.59-29.09a68.43,68.43,0,0,1,10.2-4.26c3.89-1.28,8-2,11.91-3.16a11.74,11.74,0,0,0,8.4-14.53,11.37,11.37,0,0,0-4.31-6.34l-.17-.14-.17-.13-.17-.14-.17-.14-.17-.14-.16-.14-.17-.14-.17-.13-.17-.14-.17-.14-.17-.14-.17-.14-.16-.14-.17-.13-.17-.14-.17-.14-.17-.14-.17-.14-.16-.13-.17-.14-.17-.14-.17-.14-.17-.14-.17-.14-.16-.13-.17-.14-.17-.14-.17-.14-.17-.14-.16-.14-.17-.13-.17-.14-.17-.14-.17-.14-.17-.14-.16-.14-.17-.13-.17-.14-.17-.14-.17-.14-.17-.14-.16-.14-.17-.13-.17-.14-.17-.14-.17-.14-.17-.14-.16-.13-.17-.14-.17-.14a15.17,15.17,0,0,0-2.41-1.53c-1.15-.6-2.31-1.16-3.47-1.73.3-.16.6-.32.91-.46a82.94,82.94,0,0,0,27-20c6.46-7.29,11.55-15.35,13.54-25.05,2.23-10.91-1.26-20.92-9.12-27.26l-.17-.14-.16-.14-.17-.13-.17-.14-.17-.14-.17-.14-.16-.14-.17-.13-.17-.14-.17-.14-.17-.14-.17-.14-.16-.14L381,88l-.17-.14-.17-.14-.17-.14-.17-.14-.16-.14-.17-.13-.17-.14-.17-.14-.17-.14-.17-.14-.16-.14-.17-.13-.17-.14-.17-.14-.17-.14-.17-.14-.16-.13-.17-.14-.17-.14-.17-.14-.17-.14-.17-.14-.16-.13-.17-.14-.17-.14-.17-.14-.17-.14-.17-.14-.16-.13-.17-.14-.17-.14-.17-.14-.17-.14-.16-.13-.17-.14-.17-.14a28.73,28.73,0,0,0-6.17-3.86,30,30,0,0,0-20.09-1.89,40.75,40.75,0,0,0-19.61,11c-13.15,13.16-20.4,29-21.38,47.66-.07,1.22-.18,2.44-.26,3.61a40.29,40.29,0,0,1-17.47-4A13.65,13.65,0,0,1,288,123.37a4.26,4.26,0,0,0,.13-.62,11.71,11.71,0,0,0-4.11-11.12l-.17-.14-.17-.14-.17-.14-.16-.13-.17-.14-.17-.14-.17-.14-.17-.14-.17-.14-.16-.13-.17-.14L282,110l-.17-.14-.17-.14-.17-.14-.16-.13-.17-.14-.17-.14-.17-.14-.17-.14-.17-.13-.16-.14-.17-.14-.17-.14-.17-.14-.17-.14-.17-.13-.16-.14-.17-.14-.17-.14-.17-.14-.17-.14-.17-.13-.16-.14-.17-.14-.17-.14-.17-.14-.17-.14-.16-.13-.17-.14-.17-.14-.17-.14-.17-.14-.17-.14-.16-.13-.17-.14-.17-.14L276,105l-.17-.14-.17-.13A11.38,11.38,0,0,0,258,108.9a23.76,23.76,0,0,0-1.77,6c-1.9,11.13,1.29,20.86,8.33,29.48a43.16,43.16,0,0,0,5.57,5.65l.17.14.16.14.17.14.17.14.17.14.17.13.17.14.16.14.17.14.17.14.17.13.17.14.17.14.16.14.17.14.17.14.17.14.17.13.16.14.17.14.17.14.17.14.17.13.17.14.16.14.17.14.17.14.17.14.17.13.17.14.16.14.17.14.17.14.17.14.17.13.17.14.16.14.17.14.17.14.17.14.17.13.17.14.16.14.17.14.17.14.17.13.17.14.17.14.16.14.17.14a52.49,52.49,0,0,0,20.31,10.34,67.37,67.37,0,0,0,20.89,2.62l2.08,2.55-2.85,1.59a50.25,50.25,0,0,0-15.46,12.41c-12.39,15.59-15.85,33.2-10.22,52.16,3.21,10.83,9.06,19.21,16.67,25l.17.14.17.14.17.14.16.14.17.14.17.13.17.14.17.14.17.14.16.14.17.14.17.13.17.14.17.14.17.14.17.14.16.14.17.13.17.14.17.14.17.14.17.14.16.13.17.14.17.14.17.14.17.14.17.14.16.13.17.14.17.14.17.14.17.14.16.14.17.14.17.13.17.14.17.14.17.14.16.14.17.14.17.13.17.14.17.14.17.14.16.14.17.13.17.14.17.14.17.14c9.8,7.49,22.56,10.61,36.39,8.93,12.18-1.47,23-6.59,32.83-14a102.71,102.71,0,0,0,29.13-35,60.39,60.39,0,0,0,8.46,9.64c.76.69,1.53,1.35,2.3,2l.18.14.16.13.17.14.17.14.17.14.17.14.17.14.16.13.17.14.17.14.17.14.17.14.17.14.16.13.17.14.17.14.17.14.17.14.16.13.17.14.17.14.17.14.17.14.17.14.16.13.17.14.17.14.17.14.17.14.16.14.17.13.17.14.17.14.17.14.17.14.16.14.17.13.17.14.17.14.17.14.17.14.17.14.16.13.17.14.17.14.17.14.17.14.16.13.17.14.17.14c11.33,9.23,24.28,11.27,38.48,7.05,11.61-3.46,20.84-10.5,28.29-19.91,10.67-13.5,15.15-29.25,16.26-46.14.77-11.76-.81-23.39-2.35-35m-77.81-24.6c1.27-5.65,2.79-11.24,4.62-16.76a132.15,132.15,0,0,1-4.62,16.76m-81.51-16a53.15,53.15,0,0,1-14.77,14.78,48.85,48.85,0,0,1,9.74-15.75,20.9,20.9,0,0,1,8.37-6,31.06,31.06,0,0,1-3.34,6.94"></path><path class="cls-1" d="M321.84,173.55c-2.41-3-4.71-5.71-6.87-8.56-1-1.27-2.17-1.1-3.41-1.05a67.32,67.32,0,0,1-21.27-2.61c-10.08-2.83-19-7.62-25.71-15.87-7-8.62-10.23-18.35-8.33-29.47a23.72,23.72,0,0,1,1.77-6,11.41,11.41,0,0,1,14-6.22c5.41,1.78,8.53,7.1,7.63,13,0,.2-.08.41-.13.61-2.11,7.53,1.18,12.91,7,17.2,4.89,3.62,14.34,6.33,21,6.06.09-1.17.19-2.38.26-3.6,1-18.65,8.23-34.51,21.38-47.67a40.75,40.75,0,0,1,19.61-11,29.94,29.94,0,0,1,20.09,1.9c12,5.55,17.85,17.59,15.12,31-2,9.7-7.09,17.76-13.54,25.05a83.15,83.15,0,0,1-27,20c-.86.4-1.7.84-2.54,1.27-.08,0-.11.17-.38.63,1,.61,1.95,1.32,3,1.86,3.68,1.85,7.41,3.59,11.06,5.48a12,12,0,0,1,6.56,7.73,11.75,11.75,0,0,1-8.4,14.53c-3.95,1.13-8,1.88-11.92,3.16a68.43,68.43,0,0,0-10.2,4.26c-11.74,6.1-16.61,16.26-16.58,29.09a30.5,30.5,0,0,0,2.18,11.13c4,10.19,12.45,15.76,23.43,15.41,8.38-.27,15.87-3.19,22.75-7.79a75.42,75.42,0,0,0,23-24.89,119.3,119.3,0,0,0,10.28-23.44c1.86-5.6,4-11.11,5.85-16.7a12.21,12.21,0,0,0,.39-3.73c.21-25.91,3.4-51.34,11.76-76,2.41-7.12,5.1-14.13,9.4-20.34A47.19,47.19,0,0,1,430,69.75c8.76-7.9,20.8-7.19,28.87,1.46,4.4,4.72,6.58,10.5,7.8,16.7,2.55,12.92,1.2,25.66-2.12,38.22a189.47,189.47,0,0,1-30.34,63.3,89.49,89.49,0,0,1-5.87,7,3.11,3.11,0,0,0-.93,3.11c2.1,8.29,5.37,16,11.21,22.41,6.2,6.85,12.8,9.36,23.73,4.78,7.56-3.16,13-8.88,17.13-15.87,5.2-8.85,7.37-18.57,7.89-28.71.48-9.32-.76-18.54-1.9-27.76a29.22,29.22,0,0,1-.26-6.6A11,11,0,0,1,494.8,138a11.19,11.19,0,0,1,11.87,6.55,16.83,16.83,0,0,1,1.36,4.52c1.54,11.62,3.11,23.25,2.34,35-1.11,16.89-5.58,32.64-16.26,46.14-7.44,9.41-16.68,16.46-28.28,19.91-15.11,4.49-28.79,1.9-40.62-8.89A63.81,63.81,0,0,1,412,224l-1.7-3.19c-.72,1.27-1.29,2.19-1.79,3.16A102.78,102.78,0,0,1,379,259.48c-9.77,7.39-20.64,12.51-32.82,14-24.46,3-45.57-9-52.9-33.75-5.63-19-2.17-36.58,10.22-52.17A50.25,50.25,0,0,1,319,175.13c.92-.5,1.83-1,2.85-1.58m103.68-15,.76.21a6.87,6.87,0,0,0,.69-.94c7.48-13.78,13.48-28.14,16.56-43.58a58.65,58.65,0,0,0,.78-19.82c-.21-1.49-.66-2.94-1.15-5.05a30.31,30.31,0,0,0-2.1,3.19c-1.48,3.14-3.06,6.26-4.27,9.51a186.16,186.16,0,0,0-10.24,44.56c-.43,4-.69,8-1,11.92m-94.65-22.4a7,7,0,0,0,1.28-.21c10.24-4.55,18.92-11.07,25.14-20.49a31.69,31.69,0,0,0,3.87-8.57c1.16-4-.94-6.32-5.07-6.28a10.81,10.81,0,0,0-2.18.31c-4.2.92-7.42,3.44-10.23,6.52a49,49,0,0,0-11.78,22.42c-.46,2-.68,4.07-1,6.3"></path></g></g></svg>